<svg width="214" height="104" viewBox="0 0 214 104" fill="none" xmlns="http://www.w3.org/2000/svg">
<path d="M13.696 64.5548V17.7616H1.17137V8.02427C3.63425 7.96417 5.85684 7.75379 7.83916 7.39315C9.82148 6.9724 11.5935 6.25112 13.1554 5.2293C14.7172 4.14737 16.0688 2.6447 17.2101 0.721285H26.5811V64.5548H13.696Z" fill="url(#paint0_angular_93_248)"/>
<path d="M64.754 65.2761C60.0685 65.2761 56.1039 64.4346 52.8601 62.7516C49.6163 61.0686 46.9732 58.7545 44.9309 55.8093C42.8885 52.8039 41.4167 49.3478 40.5157 45.4408C39.6146 41.4738 39.1641 37.2663 39.1641 32.8184C39.1641 28.2502 39.6146 23.9827 40.5157 20.0156C41.4768 16.0485 42.9786 12.5623 45.021 9.557C47.1234 6.55165 49.7965 4.20748 53.0403 2.52449C56.3442 0.841497 60.3088 0 64.9342 0C69.7398 0 73.7645 0.87155 77.0083 2.61465C80.3122 4.35775 82.9553 6.79208 84.9376 9.91764C86.98 12.9831 88.4217 16.4693 89.2626 20.3762C90.1637 24.2832 90.6142 28.3705 90.6142 32.6381C90.6142 37.0259 90.1637 41.1732 89.2626 45.0802C88.3616 48.9871 86.9199 52.4733 84.9376 55.5388C82.9553 58.5441 80.3122 60.9184 77.0083 62.6615C73.7045 64.4046 69.6197 65.2761 64.754 65.2761ZM64.754 53.3749C67.6974 53.3749 70.0102 52.7138 71.6921 51.3914C73.4342 50.009 74.7257 48.2358 75.5667 46.072C76.4677 43.9081 77.0384 41.6541 77.2786 39.3099C77.579 36.9056 77.7292 34.6817 77.7292 32.6381C77.7292 30.7146 77.579 28.5808 77.2786 26.2367C77.0384 23.8324 76.4977 21.5784 75.6567 19.4746C74.8158 17.3108 73.5543 15.5376 71.8723 14.1552C70.1904 12.7727 67.9077 12.0815 65.0243 12.0815C62.141 12.0815 59.8283 12.7727 58.0862 14.1552C56.3442 15.4775 55.0226 17.2206 54.1216 19.3845C53.2806 21.5483 52.7099 23.8023 52.4096 26.1465C52.1092 28.4907 51.9591 30.6545 51.9591 32.6381C51.9591 34.6216 52.0792 36.8155 52.3195 39.2198C52.6198 41.624 53.1905 43.9081 54.0315 46.072C54.8725 48.2358 56.1339 50.009 57.8159 51.3914C59.5579 52.7138 61.8706 53.3749 64.754 53.3749Z" fill="url(#paint1_angular_93_248)"/>
<path d="M124.238 65.2761C119.552 65.2761 115.587 64.4346 112.344 62.7516C109.1 61.0686 106.457 58.7545 104.414 55.8093C102.372 52.8039 100.9 49.3478 99.9993 45.4408C99.0982 41.4738 98.6477 37.2663 98.6477 32.8184C98.6477 28.2502 99.0982 23.9827 99.9993 20.0156C100.96 16.0485 102.462 12.5623 104.505 9.557C106.607 6.55165 109.28 4.20748 112.524 2.52449C115.828 0.841497 119.792 0 124.418 0C129.223 0 133.248 0.87155 136.492 2.61465C139.796 4.35775 142.439 6.79208 144.421 9.91764C146.464 12.9831 147.905 16.4693 148.746 20.3762C149.647 24.2832 150.098 28.3705 150.098 32.6381C150.098 37.0259 149.647 41.1732 148.746 45.0802C147.845 48.9871 146.403 52.4733 144.421 55.5388C142.439 58.5441 139.796 60.9184 136.492 62.6615C133.188 64.4046 129.103 65.2761 124.238 65.2761ZM124.238 53.3749C127.181 53.3749 129.494 52.7138 131.176 51.3914C132.918 50.009 134.209 48.2358 135.05 46.072C135.951 43.9081 136.522 41.6541 136.762 39.3099C137.063 36.9056 137.213 34.6817 137.213 32.6381C137.213 30.7146 137.063 28.5808 136.762 26.2367C136.522 23.8324 135.981 21.5784 135.14 19.4746C134.299 17.3108 133.038 15.5376 131.356 14.1552C129.674 12.7727 127.391 12.0815 124.508 12.0815C121.625 12.0815 119.312 12.7727 117.57 14.1552C115.828 15.4775 114.506 17.2206 113.605 19.3845C112.764 21.5483 112.193 23.8023 111.893 26.1465C111.593 28.4907 111.443 30.6545 111.443 32.6381C111.443 34.6216 111.563 36.8155 111.803 39.2198C112.103 41.624 112.674 43.9081 113.515 46.072C114.356 48.2358 115.618 50.009 117.299 51.3914C119.041 52.7138 121.354 53.3749 124.238 53.3749Z" fill="url(#paint2_angular_93_248)"/>
<path d="M183.721 65.2761C179.036 65.2761 175.071 64.4346 171.827 62.7516C168.583 61.0686 165.94 58.7545 163.898 55.8093C161.856 52.8039 160.384 49.3478 159.483 45.4408C158.582 41.4738 158.131 37.2663 158.131 32.8184C158.131 28.2502 158.582 23.9827 159.483 20.0156C160.444 16.0485 161.946 12.5623 163.988 9.557C166.091 6.55165 168.764 4.20748 172.007 2.52449C175.311 0.841497 179.276 0 183.901 0C188.707 0 192.732 0.87155 195.975 2.61465C199.279 4.35775 201.922 6.79208 203.905 9.91764C205.947 12.9831 207.389 16.4693 208.23 20.3762C209.131 24.2832 209.581 28.3705 209.581 32.6381C209.581 37.0259 209.131 41.1732 208.23 45.0802C207.329 48.9871 205.887 52.4733 203.905 55.5388C201.922 58.5441 199.279 60.9184 195.975 62.6615C192.672 64.4046 188.587 65.2761 183.721 65.2761ZM183.721 53.3749C186.665 53.3749 188.977 52.7138 190.659 51.3914C192.401 50.009 193.693 48.2358 194.534 46.072C195.435 43.9081 196.005 41.6541 196.246 39.3099C196.546 36.9056 196.696 34.6817 196.696 32.6381C196.696 30.7146 196.546 28.5808 196.246 26.2367C196.005 23.8324 195.465 21.5784 194.624 19.4746C193.783 17.3108 192.521 15.5376 190.839 14.1552C189.157 12.7727 186.875 12.0815 183.991 12.0815C181.108 12.0815 178.795 12.7727 177.053 14.1552C175.311 15.4775 173.99 17.2206 173.089 19.3845C172.248 21.5483 171.677 23.8023 171.377 26.1465C171.076 28.4907 170.926 30.6545 170.926 32.6381C170.926 34.6216 171.046 36.8155 171.287 39.2198C171.587 41.624 172.158 43.9081 172.999 46.072C173.84 48.2358 175.101 50.009 176.783 51.3914C178.525 52.7138 180.838 53.3749 183.721 53.3749Z" fill="url(#paint3_angular_93_248)"/>
<path fill-rule="evenodd" clip-rule="evenodd" d="M5.1935 95.9883C3.94537 95.4204 2.35517 94.984 0 94.984V85.9679C3.58883 85.9679 6.45663 86.6585 8.92356 87.7811C11.2414 88.8358 13.0682 90.2218 14.4964 91.3054C14.5344 91.3342 14.5721 91.3628 14.6095 91.3912C16.1371 92.5497 17.2474 93.3717 18.5832 93.9795C19.8316 94.5475 21.4222 94.984 23.778 94.984C26.1338 94.984 27.7243 94.5475 28.9724 93.9796C30.3079 93.3719 31.4179 92.5499 32.9452 91.3914C32.9826 91.363 33.0204 91.3344 33.0583 91.3056C34.4863 90.222 36.3129 88.8359 38.6306 87.7812C41.0974 86.6585 43.9652 85.9679 47.554 85.9679C51.1428 85.9679 54.0106 86.6585 56.4776 87.7811C58.7954 88.8358 60.6222 90.2218 62.0504 91.3054L62.1635 91.3912C63.6911 92.5497 64.8014 93.3717 66.1372 93.9795C67.3856 94.5475 68.9762 94.984 71.332 94.984C73.6878 94.984 75.2783 94.5475 76.5264 93.9796C77.862 93.3718 78.9721 92.5498 80.4996 91.3913L80.6124 91.3057C82.0406 90.2221 83.8675 88.8359 86.1857 87.7811C88.6528 86.6585 91.5208 85.9679 95.11 85.9679C98.6992 85.9679 101.567 86.6585 104.034 87.7811C106.352 88.8358 108.179 90.222 109.608 91.3057L109.72 91.3913C111.248 92.5498 112.358 93.3718 113.694 93.9796C114.942 94.5475 116.532 94.984 118.888 94.984C121.244 94.984 122.834 94.5475 124.082 93.9796C125.418 93.3718 126.528 92.5498 128.056 91.3913L128.168 91.3057C129.597 90.222 131.424 88.8358 133.742 87.7811C136.209 86.6585 139.077 85.9679 142.666 85.9679C146.255 85.9679 149.123 86.6585 151.59 87.7811C153.908 88.8358 155.735 90.222 157.164 91.3057L157.276 91.3913C158.804 92.5498 159.914 93.3718 161.25 93.9796C162.498 94.5475 164.088 94.984 166.444 94.984C168.8 94.984 170.39 94.5475 171.639 93.9795C172.975 93.3717 174.085 92.5497 175.613 91.3912L175.726 91.3053C177.154 90.2217 178.981 88.8357 181.298 87.7811C183.765 86.6585 186.633 85.9679 190.222 85.9679C193.811 85.9679 196.679 86.6585 199.146 87.781C201.464 88.8357 203.291 90.2218 204.719 91.3054L204.832 91.3911C206.36 92.5496 207.47 93.3717 208.806 93.9795C210.054 94.5476 211.645 94.984 214 94.984V104C210.411 104 207.543 103.309 205.076 102.187C202.758 101.132 200.931 99.746 199.503 98.6624L199.39 98.5768C197.862 97.4183 196.752 96.5962 195.416 95.9884C194.168 95.4204 192.577 94.984 190.222 94.984C187.867 94.984 186.277 95.4204 185.029 95.9883C183.693 96.5961 182.583 97.4182 181.055 98.5767L180.942 98.6621C179.514 99.7459 177.687 101.132 175.368 102.187C172.901 103.309 170.033 104 166.444 104C162.855 104 159.987 103.309 157.52 102.187C155.202 101.132 153.375 99.7459 151.946 98.6622L151.834 98.5766C150.306 97.4181 149.196 96.5961 147.86 95.9883C146.612 95.4204 145.022 94.984 142.666 94.984C140.31 94.984 138.72 95.4204 137.472 95.9883C136.136 96.5961 135.026 97.4181 133.498 98.5766L133.386 98.6622C131.957 99.7459 130.13 101.132 127.812 102.187C125.345 103.309 122.477 104 118.888 104C115.299 104 112.431 103.309 109.964 102.187C107.646 101.132 105.819 99.7459 104.39 98.6622L104.278 98.5766C102.75 97.4181 101.64 96.5961 100.304 95.9883C99.0563 95.4204 97.4658 94.984 95.11 94.984C92.7542 94.984 91.1638 95.4204 89.9156 95.9883C88.58 96.5961 87.47 97.4181 85.9424 98.5766L85.8296 98.6622C84.4014 99.7459 82.5745 101.132 80.2563 102.187C77.7893 103.309 74.9212 104 71.332 104C67.7428 104 64.8747 103.309 62.4075 102.187C60.0891 101.132 58.262 99.7459 56.8336 98.6621L56.721 98.5767C55.1933 97.4182 54.0831 96.5961 52.7475 95.9883C51.4994 95.4204 49.9092 94.984 47.554 94.984C45.1988 94.984 43.6088 95.4204 42.361 95.9882C41.0256 96.5959 39.9158 97.4179 38.3883 98.5765C38.3511 98.6048 38.3135 98.6332 38.2758 98.6619C36.8476 99.7457 35.0206 101.132 32.7023 102.187C30.2353 103.309 27.3672 104 23.778 104C20.1888 104 17.3207 103.309 14.8535 102.187C12.5351 101.132 10.708 99.7459 9.27954 98.6621C9.24175 98.6334 9.20424 98.605 9.167 98.5767C7.63925 97.4182 6.52912 96.5961 5.1935 95.9883Z" fill="url(#paint4_angular_93_248)"/>
<defs>
<radialGradient id="paint0_angular_93_248" cx="0" cy="0" r="1" gradientUnits="userSpaceOnUse" gradientTransform="translate(107 52) rotate(25.9189) scale(118.966 93.539)">
<stop offset="0.028883" stop-color="#FF98E2"/>
<stop offset="0.212188" stop-color="#FFC876"/>
<stop offset="0.360792" stop-color="#FFC876"/>
<stop offset="0.484332" stop-color="#79FFF7"/>
<stop offset="0.728666" stop-color="#9F53FF"/>
</radialGradient>
<radialGradient id="paint1_angular_93_248" cx="0" cy="0" r="1" gradientUnits="userSpaceOnUse" gradientTransform="translate(107 52) rotate(25.9189) scale(118.966 93.539)">
<stop offset="0.028883" stop-color="#FF98E2"/>
<stop offset="0.212188" stop-color="#FFC876"/>
<stop offset="0.360792" stop-color="#FFC876"/>
<stop offset="0.484332" stop-color="#79FFF7"/>
<stop offset="0.728666" stop-color="#9F53FF"/>
</radialGradient>
<radialGradient id="paint2_angular_93_248" cx="0" cy="0" r="1" gradientUnits="userSpaceOnUse" gradientTransform="translate(107 52) rotate(25.9189) scale(118.966 93.539)">
<stop offset="0.028883" stop-color="#FF98E2"/>
<stop offset="0.212188" stop-color="#FFC876"/>
<stop offset="0.360792" stop-color="#FFC876"/>
<stop offset="0.484332" stop-color="#79FFF7"/>
<stop offset="0.728666" stop-color="#9F53FF"/>
</radialGradient>
<radialGradient id="paint3_angular_93_248" cx="0" cy="0" r="1" gradientUnits="userSpaceOnUse" gradientTransform="translate(107 52) rotate(25.9189) scale(118.966 93.539)">
<stop offset="0.028883" stop-color="#FF98E2"/>
<stop offset="0.212188" stop-color="#FFC876"/>
<stop offset="0.360792" stop-color="#FFC876"/>
<stop offset="0.484332" stop-color="#79FFF7"/>
<stop offset="0.728666" stop-color="#9F53FF"/>
</radialGradient>
<radialGradient id="paint4_angular_93_248" cx="0" cy="0" r="1" gradientUnits="userSpaceOnUse" gradientTransform="translate(107 52) rotate(25.9189) scale(118.966 93.539)">
<stop offset="0.028883" stop-color="#FF98E2"/>
<stop offset="0.212188" stop-color="#FFC876"/>
<stop offset="0.360792" stop-color="#FFC876"/>
<stop offset="0.484332" stop-color="#79FFF7"/>
<stop offset="0.728666" stop-color="#9F53FF"/>
</radialGradient>
</defs>
</svg>
