<svg width="160" height="130" viewBox="0 0 160 130" fill="none" xmlns="http://www.w3.org/2000/svg">
<rect width="160" height="130" rx="32" fill="#140C1F"/>
<rect x="4" y="4" width="152" height="114" rx="28" fill="#69106B"/>
<path fill-rule="evenodd" clip-rule="evenodd" d="M70.3127 65.8751C56.1042 65.8751 49 70.1001 49 78.5501C49 83.4251 52.5521 87.0001 57.073 87.0001H83.5525C88.0733 87.0001 91.3025 83.7501 91.6255 78.5501C91.6255 70.1001 84.5212 65.8751 70.3127 65.8751Z" fill="white"/>
<path fill-rule="evenodd" clip-rule="evenodd" d="M70.3121 59.05C77.0935 59.05 82.2602 53.85 82.2602 47.025C82.2602 40.2 77.0935 35 70.3121 35C63.5308 35 58.364 40.2 58.364 47.025C58.0411 49.95 59.3328 52.875 61.5932 55.15C63.8537 57.75 67.0829 59.05 70.3121 59.05Z" fill="white"/>
<g opacity="0.2">
<path fill-rule="evenodd" clip-rule="evenodd" d="M96.4682 66.5225C95.4994 66.5225 94.5307 66.8475 94.2078 67.8225C93.8848 68.4725 93.8848 69.7725 94.2078 70.4225C97.437 75.2975 97.114 79.8475 95.8224 82.4475C95.4994 83.0975 95.4994 84.0725 96.1453 84.7225C96.4682 85.3725 97.437 85.6975 98.0828 85.6975H103.25C107.77 85.6975 111 82.4475 111 77.5725C111 67.4975 100.02 66.5225 96.4682 66.5225Z" fill="white"/>
<path fill-rule="evenodd" clip-rule="evenodd" d="M96.145 59.3724C101.312 59.3724 105.187 55.4724 105.187 49.9475C105.187 44.4225 101.312 40.5225 96.145 40.5225C90.9783 40.5225 86.7803 44.4225 86.7803 49.9475C86.7803 55.4724 90.9783 59.3724 96.145 59.3724Z" fill="white"/>
</g>
</svg>
