<svg width="88" height="96" viewBox="0 0 88 96" fill="none" xmlns="http://www.w3.org/2000/svg">
<rect width="88" height="96" rx="24" fill="#140C1F"/>
<rect x="4" y="4" width="80" height="80" rx="20" fill="#69106B"/>
<path fill-rule="evenodd" clip-rule="evenodd" d="M37.219 47.4125C27.273 47.4125 22.3 50.37 22.3 56.285C22.3 59.6975 24.7865 62.2 27.9512 62.2H46.4868C49.6514 62.2 51.9118 59.925 52.1379 56.285C52.1379 50.37 47.1649 47.4125 37.219 47.4125Z" fill="white"/>
<path fill-rule="evenodd" clip-rule="evenodd" d="M37.2186 42.635C41.9656 42.635 45.5823 38.995 45.5823 34.2175C45.5823 29.44 41.9656 25.8 37.2186 25.8C32.4716 25.8 28.8549 29.44 28.8549 34.2175C28.6289 36.265 29.5331 38.3125 31.1154 39.905C32.6977 41.725 34.9581 42.635 37.2186 42.635Z" fill="white"/>
<g opacity="0.2">
<path fill-rule="evenodd" clip-rule="evenodd" d="M55.528 47.8657C54.8498 47.8657 54.1717 48.0932 53.9457 48.7757C53.7196 49.2307 53.7196 50.1407 53.9457 50.5957C56.2061 54.0082 55.9801 57.1932 55.0759 59.0132C54.8498 59.4682 54.8498 60.1507 55.3019 60.6057C55.528 61.0607 56.2061 61.2882 56.6582 61.2882H60.2749C63.4395 61.2882 65.6999 59.0132 65.6999 55.6007C65.6999 48.5482 58.0145 47.8657 55.528 47.8657Z" fill="white"/>
<path fill-rule="evenodd" clip-rule="evenodd" d="M55.3016 42.8607C58.9183 42.8607 61.6308 40.1307 61.6308 36.2632C61.6308 32.3957 58.9183 29.6657 55.3016 29.6657C51.6849 29.6657 48.7463 32.3957 48.7463 36.2632C48.7463 40.1307 51.6849 42.8607 55.3016 42.8607Z" fill="white"/>
</g>
</svg>
