<svg width="56" height="56" viewBox="0 0 56 56" fill="none" xmlns="http://www.w3.org/2000/svg">
<rect width="56" height="56" rx="28" fill="url(#paint0_linear_444_12)"/>
<path fill-rule="evenodd" clip-rule="evenodd" d="M25.9895 29.0498C25.9906 29.0252 25.989 29.0005 25.9855 28.9762C25.9486 28.7192 25.9354 28.4559 25.8603 28.2096C25.579 27.28 24.9977 26.6124 24.0083 26.4149C23.0563 26.2266 22.2843 26.586 21.7136 27.3484C20.9403 28.3781 21.0149 29.9121 21.8696 30.8773C22.7883 31.9136 24.2817 31.9412 25.2323 30.9313C25.7291 30.4031 25.9566 29.7681 25.9895 29.0498ZM34.8514 29.0277C34.8522 29.0055 34.8509 28.9833 34.8479 28.9613C34.8181 28.7386 34.8055 28.5097 34.7471 28.2938C34.4965 27.3721 33.9538 26.694 32.9924 26.4438C32.1431 26.2226 31.3978 26.4636 30.7938 27.089C29.8004 28.1174 29.7951 29.8753 30.7711 30.9181C31.7311 31.9412 33.2445 31.9215 34.1605 30.8668C34.6185 30.3393 34.8259 29.7188 34.8514 29.0277ZM34.7983 34.9488C35.0318 34.8381 35.1211 34.514 34.9107 34.365C34.7562 34.2555 34.6325 34.2976 34.3431 34.4193C30.1191 36.1943 25.8923 36.1759 21.6656 34.4312C21.3615 34.3056 21.2438 34.2558 21.0952 34.3493C20.8709 34.4906 20.9575 34.8327 21.1968 34.9475C21.6517 35.1659 22.1071 35.3847 22.5846 35.6138C22.7996 35.7169 22.8759 35.9819 22.748 36.1813C22.3684 36.7729 21.9936 37.3585 21.607 37.9351C21.5656 37.9956 21.3883 38.0154 21.2963 37.9877C19.0096 37.2754 16.8949 36.2233 14.9602 34.8236C14.8615 34.7525 14.7762 34.6037 14.7655 34.4826C14.3269 29.7014 15.3509 25.2416 17.8069 21.0991C18.7442 19.5177 18.7416 19.4901 20.7389 18.8633C21.7896 18.5341 22.8723 18.3076 23.9377 18.0219C24.1723 17.96 24.2897 18.0285 24.383 18.2378C24.5003 18.4972 24.675 18.7343 24.7657 19.0016C24.8737 19.3202 25.039 19.3953 25.3737 19.3479C27.207 19.0871 29.0417 19.1266 30.8738 19.365C30.973 19.379 31.0682 19.32 31.1128 19.2314C31.2847 18.8913 31.4611 18.5528 31.6231 18.2062C31.7071 18.0245 31.8111 17.9745 32.0151 18.0127C33.7338 18.334 35.3965 18.8277 36.9898 19.5414C37.1525 19.6152 37.3152 19.7482 37.4138 19.8943C39.2979 22.6726 40.5686 25.6933 41.0832 29.0075C41.3659 30.8233 41.3992 32.6483 41.2326 34.476C41.2206 34.6063 41.1192 34.767 41.0086 34.8447C39.0885 36.2207 37.0005 37.2741 34.7325 37.9719C34.6218 38.0062 34.4125 37.9864 34.3645 37.9153C33.9802 37.3477 33.6131 36.7684 33.2379 36.1781C33.1108 35.9782 33.1879 35.7134 33.4033 35.6111C33.8786 35.3853 34.3355 35.1684 34.7983 34.9488Z" fill="white"/>
<defs>
<linearGradient id="paint0_linear_444_12" x1="0" y1="0" x2="41.2206" y2="65.3258" gradientUnits="userSpaceOnUse">
<stop stop-color="white" stop-opacity="0.1"/>
<stop offset="1" stop-color="white" stop-opacity="0.05"/>
</linearGradient>
</defs>
</svg>
