<svg width="160" height="130" viewBox="0 0 160 130" fill="none" xmlns="http://www.w3.org/2000/svg">
<rect width="160" height="130" rx="32" fill="#140C1F"/>
<rect x="4" y="4" width="152" height="114" rx="28" fill="#69106B"/>
<path opacity="0.2" fill-rule="evenodd" clip-rule="evenodd" d="M80 29C62.3562 29 48 43.3562 48 61C48 78.6438 62.3562 93 80 93C97.6438 93 112 78.6438 112 61C112 43.3562 97.6438 29 80 29Z" fill="white"/>
<path d="M82.5269 73.0597H82.7222C86.7408 73.0597 90.0115 69.7957 90.0115 65.7839C90.0115 61.7687 86.7408 58.5081 82.7222 58.5081H77.2822C76.0494 58.5081 75.0456 57.4942 75.0456 56.2513C75.0456 55.0252 76.0494 54.0282 77.2822 54.0282H86.1243C87.5189 54.0282 88.6507 52.8964 88.6507 51.5019C88.6507 50.1074 87.5189 48.9756 86.1243 48.9756H82.5269V47.4935C82.5269 46.099 81.3951 44.9672 80.0005 44.9672C78.606 44.9672 77.4742 46.099 77.4742 47.4935V48.9756H77.2822C73.2602 48.9756 69.9928 52.2362 69.9928 56.2513C69.9928 60.2799 73.2602 63.5607 77.2822 63.5607H82.7222C83.9551 63.5607 84.9589 64.5578 84.9589 65.7839C84.9589 67.01 83.9551 68.0071 82.7222 68.0071H73.8801C72.4854 68.0071 71.3536 69.1389 71.3536 70.5334C71.3536 71.9279 72.4854 73.0597 73.8801 73.0597H77.4742V74.5418C77.4742 75.9363 78.606 77.0681 80.0005 77.0681C81.3951 77.0681 82.5269 75.9363 82.5269 74.5418V73.0597Z" fill="white"/>
</svg>
