<svg width="88" height="96" viewBox="0 0 88 96" fill="none" xmlns="http://www.w3.org/2000/svg">
<rect width="88" height="96" rx="24" fill="#140C1F"/>
<rect x="4" y="4" width="80" height="80" rx="20" fill="#69106B"/>
<path opacity="0.2" fill-rule="evenodd" clip-rule="evenodd" d="M44.0001 21.6C31.6494 21.6 21.6001 31.6493 21.6001 44C21.6001 56.3506 31.6494 66.4 44.0001 66.4C56.3507 66.4 66.4001 56.3506 66.4001 44C66.4001 31.6493 56.3507 21.6 44.0001 21.6Z" fill="white"/>
<path d="M45.769 52.4417H45.9057C48.7187 52.4417 51.0082 50.1569 51.0082 47.3487C51.0082 44.5381 48.7187 42.2556 45.9057 42.2556H42.0977C41.2347 42.2556 40.5321 41.5459 40.5321 40.6759C40.5321 39.8176 41.2347 39.1197 42.0977 39.1197H48.2872C49.2634 39.1197 50.0556 38.3275 50.0556 37.3513C50.0556 36.3751 49.2634 35.5829 48.2872 35.5829H45.769V34.5454C45.769 33.5692 44.9767 32.777 44.0005 32.777C43.0244 32.777 42.2321 33.5692 42.2321 34.5454V35.5829H42.0977C39.2823 35.5829 36.9951 37.8653 36.9951 40.6759C36.9951 43.4959 39.2823 45.7925 42.0977 45.7925H45.9057C46.7687 45.7925 47.4714 46.4904 47.4714 47.3487C47.4714 48.207 46.7687 48.9049 45.9057 48.9049H39.7162C38.74 48.9049 37.9477 49.6972 37.9477 50.6733C37.9477 51.6495 38.74 52.4417 39.7162 52.4417H42.2321V53.4792C42.2321 54.4554 43.0244 55.2476 44.0005 55.2476C44.9767 55.2476 45.769 54.4554 45.769 53.4792V52.4417Z" fill="white"/>
</svg>
