<svg width="80" height="80" viewBox="0 0 80 80" fill="none" xmlns="http://www.w3.org/2000/svg">
<path opacity="0.3" fill-rule="evenodd" clip-rule="evenodd" d="M25.2873 59.0022C25.2873 62.3695 22.5916 65.083 19.2463 65.083C19.2333 65.083 19.2236 65.0896 19.2106 65.0928C17.6029 65.0798 16.1056 64.4586 14.9949 63.3372C13.8419 62.1669 13.2053 60.6336 13.2053 59.0186V35.3458C13.2053 34.862 13.4132 34.4435 13.7574 34.231C14.1147 34.012 14.4005 34.1558 14.4395 34.1755L16.5928 35.336C18.5026 36.3234 20.7468 36.3789 22.7345 35.4995L25.2873 34.3585V59.0022ZM68.8087 12.7094C67.1198 11.696 65.0737 11.5979 63.2549 12.5133L61.1762 13.6575C60.5916 13.9518 59.8771 13.9844 59.2275 13.6902L53.219 10.9767C50.166 9.66903 46.7882 9.66903 43.7027 11.0094L37.6942 13.6902C37.0446 13.9844 36.3626 13.9844 35.8104 13.6575L33.6344 12.4806C31.8805 11.5979 29.8344 11.696 28.1779 12.7421C26.3591 13.8537 25.2873 15.8152 25.2873 18.0056V29.0852C25.1282 29.1309 24.9658 29.1309 24.8132 29.2127L20.7663 31.014C20.12 31.3017 19.4347 31.2886 18.8631 30.9944L16.6967 29.8273C14.9429 28.9348 12.8935 29.0165 11.2079 30.0496C9.41179 31.1611 8.3335 33.1423 8.3335 35.3458V59.0186C8.3335 61.938 9.4735 64.7005 11.5424 66.7929C13.5885 68.859 16.3265 70 19.2593 70C19.2788 70 19.2983 69.9869 19.3178 69.9869H58.6754C66.6651 69.9869 71.6343 64.4619 71.6343 55.5368L71.6668 18.0056C71.6668 15.8152 70.595 13.821 68.8087 12.7094Z" fill="white"/>
<path d="M50.3482 51.0386V50.1985C53.7097 50.0742 56.4119 47.2986 56.4119 43.8822C56.4119 40.4005 53.5895 37.5693 50.1208 37.5693H45.7037C44.934 37.5693 44.2844 36.9122 44.2844 36.1341C44.2844 35.3364 44.921 34.6924 45.7037 34.6924H52.8717C54.2164 34.6924 55.3076 33.5939 55.3076 32.2402C55.3076 30.8868 54.2164 29.7883 52.8717 29.7883H50.3482V28.971C50.3482 27.6175 49.2569 26.519 47.9123 26.519C46.5676 26.519 45.4764 27.6175 45.4764 28.971V29.8112C42.1148 29.9354 39.4126 32.711 39.4126 36.1341C39.4126 39.6289 42.235 42.4732 45.7037 42.4732H50.1208C50.9035 42.4732 51.5401 43.1042 51.5401 43.8822C51.5401 44.6734 50.9035 45.3174 50.1208 45.3174H42.9528C41.6082 45.3174 40.5169 46.4159 40.5169 47.7694C40.5169 49.1229 41.6082 50.2213 42.9528 50.2213H45.4764V51.0386C45.4764 52.3921 46.5676 53.4906 47.9123 53.4906C49.2569 53.4906 50.3482 52.3921 50.3482 51.0386Z" fill="white"/>
</svg>
