<svg width="34" height="28" viewBox="0 0 34 28" fill="none" xmlns="http://www.w3.org/2000/svg">
<path d="M29.2122 13.9355V6.12903C29.2122 3.54839 28.2812 2.25806 26.4193 2.25806H25.5548C23.7815 2.25806 22.8949 3.63441 22.8949 6.3871V14C22.8949 16.6237 23.8037 17.9355 25.6213 17.9355H26.5523C28.3255 17.9355 29.2122 16.6022 29.2122 13.9355ZM18.0405 4.51613C18.0405 3.09677 18.4617 2 19.304 1.22581C20.1906 0.408602 21.5206 0 23.2939 0H28.9462C30.5864 0 31.8277 0.408602 32.67 1.22581C33.5567 2 34 3.09677 34 4.51613V15.6129C34 17.2473 33.5567 18.4086 32.67 19.0968C31.8277 19.7849 30.5864 20.129 28.9462 20.129H26.8182C24.247 20.129 22.9614 21.2473 22.9614 23.4839V24.6452C22.9614 26.8817 22.1634 28 20.5675 28C18.8828 28 18.0405 26.9892 18.0405 24.9677V4.51613Z" fill="white"/>
<path d="M11.1716 5.95716C11.1716 3.53976 10.2406 2.33106 8.37871 2.33106H7.51424C5.74097 2.33106 4.85433 3.6261 4.85433 6.21616V16.6707C4.85433 18.9586 4.07853 20.1026 2.52691 20.1026C0.842304 20.1026 0 19.1097 0 17.124V4.53262C0 3.15125 0.421152 2.05047 1.26346 1.23028C2.15009 0.410094 3.48005 0 5.25332 0H10.9056C12.5459 0 13.7872 0.410094 14.6295 1.23028C15.5161 2.0073 15.9595 3.0865 15.9595 4.46787V16.9945C15.9595 19.0665 15.1393 20.1026 13.499 20.1026C11.9474 20.1026 11.1716 18.9586 11.1716 16.6707V5.95716Z" fill="white"/>
</svg>
