<svg width="1000" height="1000" viewBox="0 0 1000 1000" fill="none" xmlns="http://www.w3.org/2000/svg">
<g filter="url(#filter0_b_447_9)">
<rect width="1000" height="1000" rx="500" fill="#140C1F"/>
<rect x="6" y="6" width="988" height="988" rx="494" stroke="url(#paint0_linear_447_9)" stroke-width="12"/>
<path d="M713.264 569.16V429.76C713.264 383.677 697.006 360.635 664.491 360.635H649.394C618.427 360.635 602.944 385.213 602.944 434.368V570.312C602.944 617.164 618.814 640.589 650.556 640.589H666.813C697.78 640.589 713.264 616.78 713.264 569.16ZM518.171 400.958C518.171 375.612 525.526 356.027 540.235 342.202C555.719 327.609 578.944 320.312 609.911 320.312H708.619C737.263 320.312 758.94 327.609 773.65 342.202C789.133 356.027 796.875 375.612 796.875 400.958V599.114C796.875 628.3 789.133 649.038 773.65 661.326C758.94 673.615 737.263 679.76 708.619 679.76H671.458C626.556 679.76 604.105 699.729 604.105 739.667V760.405C604.105 800.343 590.17 820.312 562.299 820.312C532.881 820.312 518.171 802.263 518.171 766.165V400.958Z" fill="white"/>
<path d="M398.218 426.69C398.218 383.522 381.96 361.939 349.444 361.939H334.348C303.381 361.939 287.897 385.064 287.897 431.315V618.004C287.897 658.859 274.349 679.287 247.253 679.287C217.834 679.287 203.125 661.557 203.125 626.098V401.252C203.125 376.585 210.48 356.928 225.189 342.282C240.673 327.636 263.898 320.312 294.865 320.312H393.573C422.217 320.312 443.894 327.636 458.603 342.282C474.087 356.157 481.829 375.429 481.829 400.096V623.785C481.829 660.786 467.506 679.287 438.862 679.287C411.766 679.287 398.218 658.859 398.218 618.004V426.69Z" fill="white"/>
</g>
<defs>
<filter id="filter0_b_447_9" x="-20" y="-20" width="1040" height="1040" filterUnits="userSpaceOnUse" color-interpolation-filters="sRGB">
<feFlood flood-opacity="0" result="BackgroundImageFix"/>
<feGaussianBlur in="BackgroundImageFix" stdDeviation="10"/>
<feComposite in2="SourceAlpha" operator="in" result="effect1_backgroundBlur_447_9"/>
<feBlend mode="normal" in="SourceGraphic" in2="effect1_backgroundBlur_447_9" result="shape"/>
</filter>
<linearGradient id="paint0_linear_447_9" x1="0" y1="0" x2="736.082" y2="1166.53" gradientUnits="userSpaceOnUse">
<stop stop-color="white" stop-opacity="0.1"/>
<stop offset="1" stop-color="white" stop-opacity="0.05"/>
</linearGradient>
</defs>
</svg>
