<svg width="80" height="80" viewBox="0 0 80 80" fill="none" xmlns="http://www.w3.org/2000/svg">
<path opacity="0.3" fill-rule="evenodd" clip-rule="evenodd" d="M73.9284 49.6429C73.8891 49.3942 73.8461 48.8967 73.7781 48.2016C73.1733 41.8656 71.3373 22.5834 61.9604 17.4473C61.9461 17.44 61.9318 17.4327 61.9139 17.4254C59.7594 16.3206 53.1813 12.9587 45.4901 17.5095C40.3794 20.7726 38.9764 20.4727 34.1198 17.4912C26.4966 12.8161 20.6093 15.9109 18.0933 17.2352L17.6781 17.4473C6.31853 23.6699 6 49.8917 6 50.1551C6 55.1412 6.72653 61.2101 12.5137 63.9355C14.4821 64.7073 16.2394 65 17.7676 65C21.2857 65 23.6084 63.4453 24.5747 62.6185C25.8166 61.7113 26.5396 60.7492 27.2375 59.8127C28.1465 58.6018 29.0019 57.4568 31.2387 56.1252C34.9752 53.8974 45.3505 54.223 48.7398 56.1143C50.4863 57.1861 51.3202 58.2177 52.2794 59.4103C53.0703 60.3907 53.9651 61.5028 55.4217 62.6185C58.6893 65.0037 62.9482 65.4865 67.4827 63.9355C73.3236 61.6381 74 54.9729 74 50.1551C74 49.9795 73.975 49.8076 73.9284 49.6429Z" fill="white"/>
<path fill-rule="evenodd" clip-rule="evenodd" d="M58.9762 39.969C57.5232 39.969 56.3457 38.7655 56.3457 37.2803C56.3457 35.7951 57.5232 34.5915 58.9762 34.5915C60.4293 34.5915 61.6068 35.7951 61.6068 37.2803C61.6068 38.7655 60.4293 39.969 58.9762 39.969ZM53.9514 45.1051C52.4983 45.1051 51.3209 43.9016 51.3209 42.4164C51.3209 40.9311 52.4983 39.7276 53.9514 39.7276C55.4044 39.7276 56.5819 40.9311 56.5819 42.4164C56.5819 43.9016 55.4044 45.1051 53.9514 45.1051ZM48.9266 39.969C47.4735 39.969 46.296 38.7655 46.296 37.2803C46.296 35.7951 47.4735 34.5915 48.9266 34.5915C50.3796 34.5915 51.5571 35.7951 51.5571 37.2803C51.5571 38.7655 50.3796 39.969 48.9266 39.969ZM53.9514 29.4556C55.4044 29.4556 56.5819 30.6591 56.5819 32.1443C56.5819 33.6294 55.4044 34.833 53.9514 34.833C52.4983 34.833 51.3209 33.6294 51.3209 32.1443C51.3209 30.6591 52.4983 29.4556 53.9514 29.4556ZM30.3376 40.2068H28.0113V42.5846C28.0113 44.0991 26.8087 45.3283 25.327 45.3283C23.8454 45.3283 22.6428 44.0991 22.6428 42.5846V40.2068H19.9586C18.4769 40.2068 17.2744 38.9777 17.2744 37.4632C17.2744 35.9487 18.4769 34.7196 19.9586 34.7196H22.6428V31.9761C22.6428 30.4616 23.8454 29.2324 25.327 29.2324C26.8087 29.2324 28.0113 30.4616 28.0113 31.9761V34.7196H30.3376C31.8193 34.7196 33.0217 35.9487 33.0217 37.4632C33.0217 38.9777 31.8193 40.2068 30.3376 40.2068Z" fill="white"/>
</svg>
