<svg width="160" height="130" viewBox="0 0 160 130" fill="none" xmlns="http://www.w3.org/2000/svg">
<rect width="160" height="130" rx="32" fill="#140C1F"/>
<rect x="4" y="4" width="152" height="114" rx="28" fill="#69106B"/>
<path opacity="0.2" fill-rule="evenodd" clip-rule="evenodd" d="M113.928 70.6429C113.889 70.3942 113.846 69.8967 113.778 69.2016C113.173 62.8656 111.337 43.5834 101.96 38.4473C101.946 38.44 101.932 38.4327 101.914 38.4254C99.7594 37.3206 93.1813 33.9587 85.4901 38.5095C80.3794 41.7726 78.9764 41.4727 74.1198 38.4912C66.4966 33.8161 60.6093 36.9109 58.0933 38.2352L57.6781 38.4473C46.3185 44.6699 46 70.8917 46 71.1551C46 76.1412 46.7265 82.2101 52.5137 84.9355C54.4821 85.7073 56.2394 86 57.7676 86C61.2857 86 63.6084 84.4453 64.5747 83.6185C65.8166 82.7113 66.5396 81.7492 67.2375 80.8127C68.1465 79.6018 69.0019 78.4568 71.2387 77.1252C74.9752 74.8974 85.3505 75.223 88.7398 77.1143C90.4863 78.1861 91.3202 79.2177 92.2794 80.4103C93.0703 81.3907 93.9651 82.5028 95.4217 83.6185C98.6893 86.0037 102.948 86.4865 107.483 84.9355C113.324 82.6381 114 75.9729 114 71.1551C114 70.9795 113.975 70.8076 113.928 70.6429Z" fill="white"/>
<path fill-rule="evenodd" clip-rule="evenodd" d="M98.9762 60.9693C97.5232 60.9693 96.3457 59.7657 96.3457 58.2805C96.3457 56.7953 97.5232 55.5918 98.9762 55.5918C100.429 55.5918 101.607 56.7953 101.607 58.2805C101.607 59.7657 100.429 60.9693 98.9762 60.9693ZM93.9514 66.1054C92.4983 66.1054 91.3209 64.9018 91.3209 63.4166C91.3209 61.9314 92.4983 60.7279 93.9514 60.7279C95.4044 60.7279 96.5819 61.9314 96.5819 63.4166C96.5819 64.9018 95.4044 66.1054 93.9514 66.1054ZM88.9266 60.9693C87.4735 60.9693 86.296 59.7657 86.296 58.2805C86.296 56.7953 87.4735 55.5918 88.9266 55.5918C90.3796 55.5918 91.5571 56.7953 91.5571 58.2805C91.5571 59.7657 90.3796 60.9693 88.9266 60.9693ZM93.9514 50.4558C95.4044 50.4558 96.5819 51.6594 96.5819 53.1446C96.5819 54.6297 95.4044 55.8332 93.9514 55.8332C92.4983 55.8332 91.3209 54.6297 91.3209 53.1446C91.3209 51.6594 92.4983 50.4558 93.9514 50.4558ZM70.3376 61.2071H68.0113V63.5849C68.0113 65.0994 66.8087 66.3285 65.327 66.3285C63.8454 66.3285 62.6428 65.0994 62.6428 63.5849V61.2071H59.9586C58.4769 61.2071 57.2744 59.9779 57.2744 58.4634C57.2744 56.9489 58.4769 55.7198 59.9586 55.7198H62.6428V52.9763C62.6428 51.4618 63.8454 50.2327 65.327 50.2327C66.8087 50.2327 68.0113 51.4618 68.0113 52.9763V55.7198H70.3376C71.8193 55.7198 73.0217 56.9489 73.0217 58.4634C73.0217 59.9779 71.8193 61.2071 70.3376 61.2071Z" fill="white"/>
</svg>
