<svg width="88" height="96" viewBox="0 0 88 96" fill="none" xmlns="http://www.w3.org/2000/svg">
<rect width="88" height="96" rx="24" fill="#140C1F"/>
<rect x="4" y="4" width="80" height="80" rx="20" fill="#69106B"/>
<path opacity="0.2" fill-rule="evenodd" clip-rule="evenodd" d="M67.7498 50.7501C67.7223 50.5759 67.6922 50.2277 67.6446 49.7411C67.2212 45.3059 65.936 31.8084 59.3722 28.2131C59.3622 28.208 59.3522 28.2029 59.3397 28.1978C57.8315 27.4244 53.2268 25.0711 47.843 28.2567C44.2655 30.5408 43.2834 30.3309 39.8838 28.2439C34.5476 24.9713 30.4264 27.1376 28.6652 28.0646L28.3746 28.2131C20.4229 32.5689 20.2 50.9242 20.2 51.1086C20.2 54.5988 20.7085 58.8471 24.7595 60.7548C26.1374 61.2951 27.3675 61.5 28.4373 61.5C30.8999 61.5 32.5258 60.4117 33.2023 59.833C34.0716 59.1979 34.5777 58.5244 35.0662 57.8689C35.7025 57.0213 36.3013 56.2198 37.8671 55.2877C40.4826 53.7282 47.7453 53.9561 50.1178 55.28C51.3404 56.0303 51.9241 56.7524 52.5955 57.5872C53.1492 58.2735 53.7755 59.0519 54.7951 59.833C57.0824 61.5026 60.0637 61.8406 63.2379 60.7548C67.3264 59.1467 67.7999 54.481 67.7999 51.1086C67.7999 50.9856 67.7824 50.8653 67.7498 50.7501Z" fill="white"/>
<path fill-rule="evenodd" clip-rule="evenodd" d="M57.2833 43.9785C56.2662 43.9785 55.4419 43.136 55.4419 42.0963C55.4419 41.0567 56.2662 40.2142 57.2833 40.2142C58.3004 40.2142 59.1247 41.0567 59.1247 42.0963C59.1247 43.136 58.3004 43.9785 57.2833 43.9785ZM53.7659 47.5737C52.7488 47.5737 51.9246 46.7313 51.9246 45.6916C51.9246 44.6519 52.7488 43.8095 53.7659 43.8095C54.7831 43.8095 55.6073 44.6519 55.6073 45.6916C55.6073 46.7313 54.7831 47.5737 53.7659 47.5737ZM50.2485 43.9785C49.2314 43.9785 48.4072 43.136 48.4072 42.0963C48.4072 41.0567 49.2314 40.2142 50.2485 40.2142C51.2657 40.2142 52.0899 41.0567 52.0899 42.0963C52.0899 43.136 51.2657 43.9785 50.2485 43.9785ZM53.7659 36.619C54.7831 36.619 55.6073 37.4615 55.6073 38.5012C55.6073 39.5407 54.7831 40.3832 53.7659 40.3832C52.7488 40.3832 51.9246 39.5407 51.9246 38.5012C51.9246 37.4615 52.7488 36.619 53.7659 36.619ZM37.2363 44.1449H35.6078V45.8094C35.6078 46.8695 34.7661 47.7299 33.7289 47.7299C32.6917 47.7299 31.8499 46.8695 31.8499 45.8094V44.1449H29.971C28.9338 44.1449 28.092 43.2845 28.092 42.2244C28.092 41.1642 28.9338 40.3038 29.971 40.3038H31.8499V38.3834C31.8499 37.3232 32.6917 36.4628 33.7289 36.4628C34.7661 36.4628 35.6078 37.3232 35.6078 38.3834V40.3038H37.2363C38.2734 40.3038 39.1151 41.1642 39.1151 42.2244C39.1151 43.2845 38.2734 44.1449 37.2363 44.1449Z" fill="white"/>
</svg>
