<svg width="56" height="56" viewBox="0 0 56 56" fill="none" xmlns="http://www.w3.org/2000/svg">
<rect width="56" height="56" rx="28" fill="url(#paint0_linear_444_15)"/>
<path fill-rule="evenodd" clip-rule="evenodd" d="M27.7927 24.773C25.7687 24.773 24.122 26.417 24.122 28.4397C24.122 30.4623 25.7687 32.1063 27.7927 32.1063C29.8167 32.1063 31.462 30.4623 31.462 28.4397C31.462 26.417 29.8167 24.773 27.7927 24.773Z" fill="white"/>
<path fill-rule="evenodd" clip-rule="evenodd" d="M34.4853 23.2119C33.7253 23.2119 33.1053 22.5959 33.1053 21.8399C33.1053 21.0813 33.7253 20.4653 34.4853 20.4653C35.2453 20.4653 35.8639 21.0813 35.8639 21.8399C35.8639 22.5959 35.2453 23.2119 34.4853 23.2119ZM27.7919 34.1066C24.6666 34.1066 22.1226 31.5653 22.1226 28.4399C22.1226 25.3146 24.6666 22.7733 27.7919 22.7733C30.9186 22.7733 33.4613 25.3146 33.4613 28.4399C33.4613 31.5653 30.9186 34.1066 27.7919 34.1066ZM33.6226 15.3333H22.3759C18.1639 15.3333 15.3333 18.2959 15.3333 22.7066V33.2933C15.3333 37.7026 18.1639 40.6666 22.3759 40.6666H33.6213C37.8346 40.6666 40.6666 37.7026 40.6666 33.2933V22.7066C40.6666 18.2959 37.8359 15.3333 33.6226 15.3333Z" fill="white"/>
<defs>
<linearGradient id="paint0_linear_444_15" x1="0" y1="0" x2="41.2206" y2="65.3258" gradientUnits="userSpaceOnUse">
<stop stop-color="white" stop-opacity="0.1"/>
<stop offset="1" stop-color="white" stop-opacity="0.05"/>
</linearGradient>
</defs>
</svg>
