<svg width="364" height="96" viewBox="0 0 364 96" fill="none" xmlns="http://www.w3.org/2000/svg">
<path d="M267.84 58.674C267.84 65.5708 271.023 68.7059 277.389 68.7059H278.83C283.074 68.7059 285.196 70.0933 285.196 72.2414C285.196 74.2766 283.13 75.2941 278.997 75.2941H269.515C260.581 75.2941 256.113 71.2804 256.113 63.253V30.8983C256.113 25.3583 258.068 22.5882 261.977 22.5882C265.997 22.5882 268.008 25.5279 268.008 31.4071L267.84 58.674Z" fill="white"/>
<path d="M343.812 68.7059H358.481C362.16 68.7059 364 70.3208 364 72.0489C364 73.5849 362.257 75.2941 358.771 75.2941H340.617C333.065 75.2941 329.289 71.79 329.289 64.7817V32.9566C329.289 26.0444 333.162 22.5882 340.908 22.5882H352.962C356.545 22.5882 359.256 23.3563 361.095 24.8923C363.032 26.3324 364 28.4444 364 31.2285V47.7891C364 51.3413 363.032 53.8854 361.095 55.4214C359.256 56.9575 356.545 57.7255 352.962 57.7255H344.103C341.198 57.7255 339.746 59.2093 339.746 63.5294C339.746 67.6576 341.101 68.7059 343.812 68.7059ZM339.746 34.6847V45.4851C339.746 50.2852 342.118 52.6853 346.862 52.6853C351.316 52.6853 353.543 50.2852 353.543 45.4851V34.6847C353.543 29.8845 351.316 27.4844 346.862 27.4844C342.118 27.4844 339.746 29.8845 339.746 34.6847Z" fill="white"/>
<path d="M236.506 59.6838V31.3166C236.506 25.4977 238.467 22.5882 242.389 22.5882C246.535 22.5882 248.608 25.162 248.608 30.3095V63.5444C248.608 67.7967 247.488 70.818 245.247 72.6085C243.117 74.3989 239.98 75.2941 235.834 75.2941H221.379C216.896 75.2941 213.591 74.4549 211.462 72.7763C209.333 70.9859 208.268 68.0205 208.268 63.8801V30.4773C208.268 25.2179 210.397 22.5882 214.655 22.5882C218.577 22.5882 220.538 25.4977 220.538 31.3166V59.8516C220.538 66.23 222.835 68.7059 227.43 68.7059H229.783C234.265 68.7059 236.506 66.1741 236.506 59.6838Z" fill="white"/>
<path d="M126.229 0C130.106 0 132.044 2.90022 132.044 8.70065V14.2222C132.044 20.1342 135.256 22.5882 141.679 22.5882H144.836C149.266 22.5882 151.481 24.0383 151.481 25.9346C151.481 27.9425 149.266 29.1765 144.836 29.1765H141.679C135.256 29.1765 132.044 32.8505 132.044 40.6588V59.0641C132.044 65.6453 135.2 68.936 141.513 68.936H145.5C149.82 68.936 151.979 69.9956 151.979 72.115C151.979 74.2344 149.986 75.2941 145.999 75.2941H132.21C124.125 75.2941 120.082 71.2227 120.082 63.0797V7.86405C120.082 2.62135 122.131 0 126.229 0Z" fill="white"/>
<path d="M84.2053 68.7059H104.821C109.992 68.7059 112.577 69.5339 112.577 72.0026C112.577 74.1969 110.128 75.2941 105.229 75.2941H79.7148C69.1008 75.2941 63.7938 70.2882 63.7938 60.2764V14.812C63.7938 4.93732 69.2369 0 80.123 0H97.0646C102.099 0 105.91 1.09718 108.495 3.29155C111.217 5.34876 112.577 8.36602 112.577 12.3433V36.0013C112.577 41.0758 111.217 44.7102 108.495 46.9045C105.91 49.0989 102.099 50.1961 97.0646 50.1961H84.6135C80.5312 50.1961 78.4901 53.2819 78.4901 59.4536C78.4901 65.3509 80.3952 68.7059 84.2053 68.7059ZM78.4901 17.2806V32.7097C78.4901 39.5671 81.824 42.9958 88.4917 42.9958C94.7513 42.9958 97.881 39.5671 97.881 32.7097V17.2806C97.881 10.4232 94.7513 6.99454 88.4917 6.99454C81.824 6.99454 78.4901 10.4232 78.4901 17.2806Z" fill="white"/>
<path d="M39.7932 54.5411C41.267 57.857 42.4007 59.5149 43.1943 59.5149C43.7612 59.5149 44.0446 58.4859 44.0446 56.4277L44.2147 10.6338C44.2147 3.77328 46.1986 0.343026 50.1666 0.343026C54.248 0.343026 56.2887 3.1444 56.2887 8.74715L56.1186 62.9452C56.1186 71.1778 52.3774 75.2941 44.8949 75.2941C41.3804 75.2941 38.4327 72.6071 36.0519 67.233L15.9853 21.0961C14.5115 18.9236 13.5478 17.8373 13.0943 17.8373C12.4141 17.8373 12.074 19.2094 12.074 21.9536V65.8609C12.074 72.0354 10.09 75.1226 6.12203 75.1226C2.04068 75.1226 0 72.3784 0 66.89L0.170056 12.5204C0.170056 4.17348 3.85461 0 11.2237 0C14.058 0 17.0056 2.80137 20.0667 8.40413L39.7932 54.5411Z" fill="white"/>
<path d="M188.379 58.1794V39.0697C188.379 32.1301 185.971 28.6603 181.156 28.6603H178.92C174.333 28.6603 172.04 32.3614 172.04 39.7636V58.3529C172.04 65.4081 174.391 68.9357 179.092 68.9357H181.5C186.086 68.9357 188.379 65.3503 188.379 58.1794ZM159.485 34.7324C159.485 30.9157 160.574 27.9664 162.752 25.8845C165.046 23.687 168.486 22.5882 173.072 22.5882H187.691C191.934 22.5882 195.144 23.687 197.323 25.8845C199.616 27.9664 200.763 30.9157 200.763 34.7324V62.6902C200.763 67.0852 199.554 70.6677 197.26 72.5183C195.082 74.3688 191.871 75.2941 187.629 75.2941H182.125C175.475 75.2941 172.212 77.8415 172.212 83.8558V86.9786C172.212 92.9928 170.148 96 166.02 96C161.663 96 159.485 93.282 159.485 87.846V34.7324Z" fill="white"/>
<path d="M291.988 50.2312C284.958 50.2312 281.443 47.4874 281.443 41.9997V31.0654C281.443 25.414 284.754 22.5882 291.375 22.5882H316.879C320.149 22.5882 321.784 24.3894 321.784 26.1094C321.784 27.5837 320.149 29.1765 316.879 29.1765H296.893C292.315 29.1765 290.026 29.8368 290.026 34.7511V37.8226C290.026 42.9826 292.274 45.5626 296.77 45.5626H311.239C318.269 45.5626 321.784 48.3064 321.784 53.794V67.0627C321.784 72.5503 318.391 75.2941 311.607 75.2941H297.483C294.295 75.2941 292.701 73.5748 292.701 72.0186C292.701 70.5444 294.336 68.7059 297.606 68.7059H306.579C310.993 68.7059 313.201 68.5779 313.201 64.2369V58.4626C313.201 52.975 310.871 50.2312 306.211 50.2312H291.988Z" fill="white"/>
</svg>
