<svg width="1200" height="600" viewBox="0 0 1200 600" fill="none" xmlns="http://www.w3.org/2000/svg">
<rect width="1200" height="600" fill="#140C1F"/>
<path d="M832.523 328.909C832.523 347.587 841.145 356.078 858.389 356.078H862.292C873.788 356.078 879.536 359.836 879.536 365.654C879.536 371.166 873.939 373.922 862.746 373.922H837.061C812.859 373.922 800.758 363.051 800.758 341.31V253.683C800.758 238.679 806.052 231.176 816.64 231.176C827.531 231.176 832.977 239.138 832.977 255.061L832.523 328.909Z" fill="white"/>
<path d="M1038.32 356.078H1078.05C1088.02 356.078 1093 360.452 1093 365.132C1093 369.292 1088.28 373.922 1078.84 373.922H1029.66C1009.2 373.922 998.974 364.431 998.974 345.451V259.257C998.974 240.537 1009.47 231.176 1030.45 231.176H1063.1C1072.8 231.176 1080.15 233.257 1085.13 237.417C1090.38 241.317 1093 247.037 1093 254.577V299.429C1093 309.049 1090.38 315.939 1085.13 320.1C1080.15 324.26 1072.8 326.34 1063.1 326.34H1039.1C1031.23 326.34 1027.3 330.358 1027.3 342.059C1027.3 353.239 1030.97 356.078 1038.32 356.078ZM1027.3 263.938V293.189C1027.3 306.189 1033.73 312.689 1046.58 312.689C1058.64 312.689 1064.67 306.189 1064.67 293.189V263.938C1064.67 250.937 1058.64 244.437 1046.58 244.437C1033.73 244.437 1027.3 250.937 1027.3 263.938Z" fill="white"/>
<path d="M747.646 331.644V254.816C747.646 239.056 752.958 231.176 763.582 231.176C774.812 231.176 780.428 238.147 780.428 252.088V342.099C780.428 353.616 777.392 361.799 771.322 366.648C765.555 371.497 757.055 373.922 745.825 373.922H706.668C694.527 373.922 685.573 371.649 679.805 367.103C674.038 362.253 671.155 354.222 671.155 343.009V252.543C671.155 238.299 676.922 231.176 688.456 231.176C699.08 231.176 704.392 239.056 704.392 254.816V332.098C704.392 349.373 710.614 356.078 723.059 356.078H729.434C741.575 356.078 747.646 349.222 747.646 331.644Z" fill="white"/>
<path d="M448.929 170C459.429 170 464.679 177.855 464.679 193.564V208.519C464.679 224.53 473.379 231.176 490.78 231.176H499.33C511.33 231.176 517.33 235.104 517.33 240.24C517.33 245.678 511.33 249.02 499.33 249.02H490.78C473.379 249.02 464.679 258.97 464.679 280.118V329.965C464.679 347.789 473.229 356.702 490.33 356.702H501.13C512.83 356.702 518.68 359.572 518.68 365.312C518.68 371.052 513.28 373.922 502.48 373.922H465.129C443.229 373.922 432.278 362.895 432.278 340.841V191.298C432.278 177.099 437.829 170 448.929 170Z" fill="white"/>
<path d="M335.095 356.078H390.938C404.945 356.078 411.948 358.321 411.948 365.007C411.948 370.95 405.314 373.922 392.044 373.922H322.931C294.18 373.922 279.804 360.364 279.804 333.249V210.116C279.804 183.372 294.548 170 324.037 170H369.928C383.566 170 393.887 172.972 400.89 178.915C408.262 184.486 411.948 192.658 411.948 203.43V267.503C411.948 281.247 408.262 291.09 400.89 297.033C393.887 302.976 383.566 305.948 369.928 305.948H336.2C325.142 305.948 319.613 314.305 319.613 331.02C319.613 346.992 324.774 356.078 335.095 356.078ZM319.613 216.802V258.589C319.613 277.161 328.644 286.447 346.706 286.447C363.661 286.447 372.139 277.161 372.139 258.589V216.802C372.139 198.23 363.661 188.944 346.706 188.944C328.644 188.944 319.613 198.23 319.613 216.802Z" fill="white"/>
<path d="M214.791 317.715C218.784 326.696 221.855 331.186 224.004 331.186C225.54 331.186 226.308 328.399 226.308 322.825L226.768 198.8C226.768 180.219 232.142 170.929 242.891 170.929C253.946 170.929 259.474 178.516 259.474 193.69L259.014 340.477C259.014 362.773 248.879 373.922 228.611 373.922C219.091 373.922 211.106 366.644 204.657 352.089L150.301 227.135C146.309 221.251 143.698 218.309 142.47 218.309C140.627 218.309 139.706 222.026 139.706 229.458V348.373C139.706 365.096 134.332 373.457 123.583 373.457C112.528 373.457 107 366.025 107 351.16L107.461 203.91C107.461 181.303 117.441 170 137.403 170C145.08 170 153.065 177.587 161.356 192.761L214.791 317.715Z" fill="white"/>
<path d="M617.28 327.569V275.814C617.28 257.019 610.758 247.622 597.713 247.622H591.656C579.232 247.622 573.021 257.646 573.021 277.693V328.039C573.021 347.147 579.388 356.701 592.122 356.701H598.645C611.068 356.701 617.28 346.99 617.28 327.569ZM539.01 264.067C539.01 253.73 541.961 245.742 547.862 240.104C554.074 234.152 563.392 231.176 575.816 231.176H615.417C626.909 231.176 635.606 234.152 641.507 240.104C647.719 245.742 650.825 253.73 650.825 264.067V339.786C650.825 351.689 647.549 361.392 641.337 366.404C635.436 371.416 626.739 373.922 615.247 373.922H600.339C582.324 373.922 573.486 380.821 573.486 397.109V405.567C573.486 421.856 567.896 430 556.714 430C544.912 430 539.01 422.639 539.01 407.916V264.067Z" fill="white"/>
<path d="M897.935 306.043C878.892 306.043 869.371 298.612 869.371 283.749V254.135C869.371 238.829 878.339 231.176 896.274 231.176H965.359C974.216 231.176 978.644 236.055 978.644 240.713C978.644 244.706 974.216 249.02 965.359 249.02H911.22C898.821 249.02 892.621 250.808 892.621 264.118V272.436C892.621 286.411 898.71 293.399 910.888 293.399H950.081C969.123 293.399 978.644 300.83 978.644 315.692V351.628C978.644 366.49 969.455 373.922 951.077 373.922H912.819C904.184 373.922 899.866 369.265 899.866 365.051C899.866 361.058 904.294 356.078 913.151 356.078H937.459C949.416 356.078 955.395 355.732 955.395 343.975V328.336C955.395 313.474 949.084 306.043 936.463 306.043H897.935Z" fill="white"/>
</svg>
