<svg width="152" height="40" viewBox="0 0 152 40" fill="none" xmlns="http://www.w3.org/2000/svg">
<path d="M111.845 24.4475C111.845 27.3211 113.175 28.6275 115.833 28.6275H116.434C118.207 28.6275 119.093 29.2055 119.093 30.1006C119.093 30.9486 118.23 31.3725 116.504 31.3725H112.545C108.814 31.3725 106.948 29.7002 106.948 26.3554V12.8743C106.948 10.5659 107.765 9.41177 109.397 9.41177C111.076 9.41177 111.915 10.6366 111.915 13.0863L111.845 24.4475Z" fill="white"/>
<path d="M143.57 28.6275H149.695C151.232 28.6275 152 29.3003 152 30.0204C152 30.6604 151.272 31.3725 149.817 31.3725H142.236C139.082 31.3725 137.505 29.9125 137.505 26.9924V13.7319C137.505 10.8518 139.122 9.41177 142.357 9.41177H147.391C148.887 9.41177 150.019 9.73178 150.787 10.3718C151.596 10.9718 152 11.8519 152 13.0119V19.9121C152 21.3922 151.596 22.4522 150.787 23.0923C150.019 23.7323 148.887 24.0523 147.391 24.0523H143.691C142.478 24.0523 141.872 24.6705 141.872 26.4706C141.872 28.1907 142.438 28.6275 143.57 28.6275ZM141.872 14.4519V18.9521C141.872 20.9522 142.862 21.9522 144.844 21.9522C146.703 21.9522 147.633 20.9522 147.633 18.9521V14.4519C147.633 12.4519 146.703 11.4518 144.844 11.4518C142.862 11.4518 141.872 12.4519 141.872 14.4519Z" fill="white"/>
<path d="M98.7608 24.8682V13.0486C98.7608 10.624 99.5797 9.41177 101.217 9.41177C102.949 9.41177 103.814 10.4842 103.814 12.629V26.4768C103.814 28.2486 103.347 29.5075 102.411 30.2535C101.522 30.9995 100.211 31.3725 98.4801 31.3725H92.4438C90.5721 31.3725 89.1917 31.0229 88.3027 30.3235C87.4136 29.5775 86.9691 28.3419 86.9691 26.6167V12.6989C86.9691 10.5075 87.8581 9.41177 89.6363 9.41177C91.274 9.41177 92.0929 10.624 92.0929 13.0486V24.9382C92.0929 27.5959 93.0521 28.6275 94.9706 28.6275H95.9533C97.825 28.6275 98.7608 27.5725 98.7608 24.8682Z" fill="white"/>
<path d="M52.7111 0C54.3298 0 55.1392 1.20842 55.1392 3.62527V5.92593C55.1392 8.38925 56.4804 9.41177 59.1628 9.41177H60.4809C62.3308 9.41177 63.2558 10.016 63.2558 10.8061C63.2558 11.6427 62.3308 12.1569 60.4809 12.1569H59.1628C56.4804 12.1569 55.1392 13.6877 55.1392 16.9412V24.61C55.1392 27.3522 56.4573 28.7233 59.0934 28.7233H60.7584C62.5621 28.7233 63.4639 29.1649 63.4639 30.0479C63.4639 30.931 62.6314 31.3725 60.9665 31.3725H55.2085C51.8324 31.3725 50.1443 29.6761 50.1443 26.2832V3.27669C50.1443 1.09223 50.9999 0 52.7111 0Z" fill="white"/>
<path d="M35.1627 28.6275H43.7714C45.9307 28.6275 47.0103 28.9725 47.0103 30.0011C47.0103 30.9154 45.9875 31.3725 43.9419 31.3725H33.2875C28.8553 31.3725 26.6392 29.2868 26.6392 25.1152V6.17165C26.6392 2.05722 28.9121 0 33.458 0H40.5325C42.6349 0 44.226 0.457159 45.3056 1.37148C46.4421 2.22865 47.0103 3.48584 47.0103 5.14304V15.0005C47.0103 17.1149 46.4421 18.6292 45.3056 19.5436C44.226 20.4579 42.6349 20.915 40.5325 20.915H35.3331C33.6284 20.915 32.7761 22.2008 32.7761 24.7723C32.7761 27.2295 33.5716 28.6275 35.1627 28.6275ZM32.7761 7.20026V13.6291C32.7761 16.4863 34.1683 17.9149 36.9526 17.9149C39.5665 17.9149 40.8734 16.4863 40.8734 13.6291V7.20026C40.8734 4.34301 39.5665 2.91439 36.9526 2.91439C34.1683 2.91439 32.7761 4.34301 32.7761 7.20026Z" fill="white"/>
<path d="M16.6169 22.7254C17.2324 24.1071 17.7058 24.7979 18.0372 24.7979C18.2739 24.7979 18.3922 24.3691 18.3922 23.5115L18.4633 4.43075C18.4633 1.5722 19.2917 0.142928 20.9487 0.142928C22.653 0.142928 23.5052 1.31017 23.5052 3.64465L23.4341 26.2272C23.4341 29.6574 21.8719 31.3725 18.7473 31.3725C17.2797 31.3725 16.0488 30.2529 15.0547 28.0138L6.67518 8.79003C6.05974 7.88482 5.65733 7.43222 5.46797 7.43222C5.18392 7.43222 5.04189 8.00393 5.04189 9.14735V27.442C5.04189 30.0147 4.21341 31.3011 2.55645 31.3011C0.85215 31.3011 0 30.1577 0 27.8708L0.0710124 5.21685C0.0710124 1.73895 1.60962 0 4.68683 0C5.87037 0 7.10125 1.16724 8.37948 3.50172L16.6169 22.7254Z" fill="white"/>
<path d="M78.6639 24.2414V16.279C78.6639 13.3875 77.6584 11.9418 75.6474 11.9418H74.7137C72.7985 11.9418 71.8409 13.4839 71.8409 16.5682V24.3137C71.8409 27.2534 72.8224 28.7232 74.7856 28.7232H75.7911C77.7063 28.7232 78.6639 27.2293 78.6639 24.2414ZM66.5979 14.4719C66.5979 12.8815 67.0528 11.6527 67.9625 10.7852C68.9202 9.86958 70.3566 9.41177 72.2718 9.41177H78.3766C80.1482 9.41177 81.4889 9.86958 82.3986 10.7852C83.3562 11.6527 83.8351 12.8815 83.8351 14.4719V26.1209C83.8351 27.9522 83.3301 29.4449 82.3725 30.216C81.4628 30.987 80.1221 31.3725 78.3505 31.3725H76.0522C73.2751 31.3725 71.9127 32.434 71.9127 34.9399V36.2411C71.9127 38.747 71.0509 40 69.3271 40C67.5077 40 66.5979 38.8675 66.5979 36.6025V14.4719Z" fill="white"/>
<path d="M121.929 20.9297C118.994 20.9297 117.526 19.7864 117.526 17.4999V12.9439C117.526 10.5891 118.908 9.41177 121.673 9.41177H132.323C133.688 9.41177 134.371 10.1623 134.371 10.8789C134.371 11.4932 133.688 12.1569 132.323 12.1569H123.977C122.066 12.1569 121.11 12.432 121.11 14.4796V15.7594C121.11 17.9094 122.049 18.9844 123.926 18.9844H129.968C132.903 18.9844 134.371 20.1277 134.371 22.4142V27.9428C134.371 30.2293 132.955 31.3725 130.121 31.3725H124.224C122.892 31.3725 122.227 30.6562 122.227 30.0078C122.227 29.3935 122.909 28.6275 124.275 28.6275H128.022C129.865 28.6275 130.787 28.5741 130.787 26.7654V24.3594C130.787 22.0729 129.814 20.9297 127.869 20.9297H121.929Z" fill="white"/>
</svg>
