<svg width="1440" height="620" viewBox="0 0 1440 620" fill="none" xmlns="http://www.w3.org/2000/svg">
<g opacity="0.2">
<g opacity="0.7">
<path style="mix-blend-mode:screen" d="M1247.01 501.64C1353.6 440.118 1432.04 374.962 1422.21 356.108C1412.39 337.255 1318.02 371.845 1211.44 433.366C1104.85 494.888 1026.41 560.045 1036.24 578.898C1046.06 597.751 1140.43 563.162 1247.01 501.64Z" fill="url(#paint0_radial_1_82)"/>
<path style="mix-blend-mode:screen" d="M1304.95 537.546C1348.22 492.007 1348.22 418.175 1304.95 372.637C1261.69 327.099 1191.54 327.099 1148.28 372.637C1105.01 418.175 1105.01 492.007 1148.28 537.546C1191.54 583.084 1261.69 583.084 1304.95 537.546Z" fill="url(#paint1_radial_1_82)"/>
</g>
<g opacity="0.3">
<path style="mix-blend-mode:screen" d="M882.664 201.129C935.431 201.129 978.208 156.105 978.208 100.564C978.208 45.0242 935.431 0 882.664 0C829.896 0 787.12 45.0242 787.12 100.564C787.12 156.105 829.896 201.129 882.664 201.129Z" fill="url(#paint2_radial_1_82)"/>
</g>
<g style="mix-blend-mode:color-dodge" opacity="0.5">
<g style="mix-blend-mode:screen">
<path d="M382.705 365.607C384.917 356.453 379.659 347.144 370.962 344.816C362.264 342.487 353.421 348.021 351.208 357.176C348.996 366.33 354.254 375.639 362.951 377.967C371.649 380.295 380.493 374.762 382.705 365.607Z" fill="url(#paint3_radial_1_82)"/>
</g>
<g style="mix-blend-mode:screen">
<path d="M365.761 361.417C365.761 344.611 366.325 331.004 367.009 331.004C367.694 331.004 368.258 344.632 368.258 361.417C368.258 378.203 367.694 391.83 367.009 391.83C366.325 391.83 365.761 378.203 365.761 361.417Z" fill="url(#paint4_radial_1_82)"/>
</g>
<g style="mix-blend-mode:screen">
<path d="M366.989 360.124C382.957 360.124 395.884 360.718 395.884 361.439C395.884 362.16 382.937 362.753 366.989 362.753C351.042 362.753 338.095 362.16 338.095 361.439C338.095 360.718 351.042 360.124 366.989 360.124Z" fill="url(#paint5_radial_1_82)"/>
</g>
<g style="mix-blend-mode:screen">
<path d="M592.796 278.698C601.771 278.698 609.046 271.041 609.046 261.595C609.046 252.149 601.771 244.491 592.796 244.491C583.822 244.491 576.547 252.149 576.547 261.595C576.547 271.041 583.822 278.698 592.796 278.698Z" fill="url(#paint6_radial_1_82)"/>
</g>
<g style="mix-blend-mode:screen">
<path d="M591.545 261.595C591.545 244.788 592.109 231.182 592.793 231.182C593.478 231.182 594.042 244.809 594.042 261.595C594.042 278.38 593.478 292.008 592.793 292.008C592.109 292.008 591.545 278.38 591.545 261.595Z" fill="url(#paint7_radial_1_82)"/>
</g>
<g style="mix-blend-mode:screen">
<path d="M592.794 260.302C608.762 260.302 621.689 260.895 621.689 261.616C621.689 262.337 608.742 262.93 592.794 262.93C576.847 262.93 563.899 262.337 563.899 261.616C563.899 260.895 576.847 260.302 592.794 260.302Z" fill="url(#paint8_radial_1_82)"/>
</g>
<g style="mix-blend-mode:screen">
<path d="M1307.69 168.533C1307.69 147.403 1323.96 130.299 1344.01 130.299C1364.07 130.299 1380.34 147.424 1380.34 168.533C1380.34 189.642 1364.07 206.766 1344.01 206.766C1323.96 206.766 1307.69 189.642 1307.69 168.533Z" fill="url(#paint9_radial_1_82)"/>
</g>
<g style="mix-blend-mode:screen">
<path d="M1341.25 168.533C1341.25 130.999 1342.5 100.565 1344.03 100.565C1345.56 100.565 1346.81 130.999 1346.81 168.533C1346.81 206.067 1345.56 236.501 1344.03 236.501C1342.5 236.501 1341.25 206.067 1341.25 168.533Z" fill="url(#paint10_radial_1_82)"/>
</g>
<g style="mix-blend-mode:screen">
<path d="M1344.04 165.63C1379.7 165.63 1408.61 166.944 1408.61 168.554C1408.61 170.165 1379.7 171.479 1344.04 171.479C1308.37 171.479 1279.46 170.165 1279.46 168.554C1279.46 166.944 1308.37 165.63 1344.04 165.63Z" fill="url(#paint11_radial_1_82)"/>
</g>
<g style="mix-blend-mode:screen">
<path d="M167.09 537.305C193.354 509.661 193.354 464.841 167.09 437.197C140.826 409.553 98.2439 409.553 71.9799 437.197C45.716 464.841 45.716 509.661 71.9799 537.305C98.2439 564.949 140.826 564.949 167.09 537.305Z" fill="url(#paint12_radial_1_82)"/>
</g>
<g style="mix-blend-mode:screen">
<path d="M114.411 487.244C114.411 417.75 116.707 361.417 119.546 361.417C122.385 361.417 124.68 417.75 124.68 487.244C124.68 556.739 122.385 613.072 119.546 613.072C116.707 613.072 114.411 556.739 114.411 487.244Z" fill="url(#paint13_radial_1_82)"/>
</g>
<g style="mix-blend-mode:screen">
<path d="M119.545 481.84C185.57 481.84 239.091 484.256 239.091 487.244C239.091 490.233 185.57 492.649 119.545 492.649C53.5206 492.649 0 490.233 0 487.244C0 484.256 53.5206 481.84 119.545 481.84Z" fill="url(#paint14_radial_1_82)"/>
</g>
<g style="mix-blend-mode:screen">
<path d="M1062.76 307.225C1062.76 302.499 1066.4 298.663 1070.89 298.663C1075.38 298.663 1079.03 302.499 1079.03 307.225C1079.03 311.951 1075.38 315.787 1070.89 315.787C1066.4 315.787 1062.76 311.951 1062.76 307.225Z" fill="url(#paint15_radial_1_82)"/>
</g>
<g style="mix-blend-mode:screen">
<path d="M1070.89 322.442C1071.24 322.442 1071.52 315.629 1071.52 307.225C1071.52 298.821 1071.24 292.008 1070.89 292.008C1070.55 292.008 1070.27 298.821 1070.27 307.225C1070.27 315.629 1070.55 322.442 1070.89 322.442Z" fill="url(#paint16_radial_1_82)"/>
</g>
<g style="mix-blend-mode:screen">
<path d="M1070.89 306.568C1078.87 306.568 1085.35 306.865 1085.35 307.225C1085.35 307.586 1078.89 307.882 1070.89 307.882C1062.9 307.882 1056.43 307.586 1056.43 307.225C1056.43 306.865 1062.9 306.568 1070.89 306.568Z" fill="url(#paint17_radial_1_82)"/>
</g>
<g style="mix-blend-mode:screen">
<path d="M893.92 128.562C893.92 123.835 897.564 119.999 902.055 119.999C906.545 119.999 910.19 123.835 910.19 128.562C910.19 133.288 906.545 137.124 902.055 137.124C897.564 137.124 893.92 133.288 893.92 128.562Z" fill="url(#paint18_radial_1_82)"/>
</g>
<g style="mix-blend-mode:screen">
<path d="M901.431 128.562C901.431 120.169 901.713 113.345 902.055 113.345C902.397 113.345 902.679 120.148 902.679 128.562C902.679 136.976 902.397 143.779 902.055 143.779C901.713 143.779 901.431 136.976 901.431 128.562Z" fill="url(#paint19_radial_1_82)"/>
</g>
<g style="mix-blend-mode:screen">
<path d="M902.035 127.905C910.008 127.905 916.492 128.202 916.492 128.562C916.492 128.922 910.028 129.219 902.035 129.219C894.041 129.219 887.577 128.922 887.577 128.562C887.577 128.202 894.041 127.905 902.035 127.905Z" fill="url(#paint20_radial_1_82)"/>
</g>
<g style="mix-blend-mode:screen">
<path d="M726.796 411.541C726.796 406.815 730.44 402.979 734.931 402.979C739.421 402.979 743.065 406.815 743.065 411.541C743.065 416.267 739.421 420.103 734.931 420.103C730.44 420.103 726.796 416.267 726.796 411.541Z" fill="url(#paint21_radial_1_82)"/>
</g>
<g style="mix-blend-mode:screen">
<path d="M734.307 411.54C734.307 403.148 734.589 396.323 734.931 396.323C735.273 396.323 735.555 403.126 735.555 411.54C735.555 419.954 735.273 426.757 734.931 426.757C734.589 426.757 734.307 419.954 734.307 411.54Z" fill="url(#paint22_radial_1_82)"/>
</g>
<g style="mix-blend-mode:screen">
<path d="M734.932 412.198C742.917 412.198 749.389 411.904 749.389 411.541C749.389 411.178 742.917 410.883 734.932 410.883C726.947 410.883 720.475 411.178 720.475 411.541C720.475 411.904 726.947 412.198 734.932 412.198Z" fill="url(#paint23_radial_1_82)"/>
</g>
<g style="mix-blend-mode:screen">
<path d="M736.965 82.9313C736.965 78.2051 740.609 74.369 745.1 74.369C749.59 74.369 753.234 78.2051 753.234 82.9313C753.234 87.6575 749.59 91.4936 745.1 91.4936C740.609 91.4936 736.965 87.6575 736.965 82.9313Z" fill="url(#paint24_radial_1_82)"/>
</g>
<g style="mix-blend-mode:screen">
<path d="M744.478 82.9313C744.478 74.5386 744.759 67.7142 745.102 67.7142C745.444 67.7142 745.726 74.5174 745.726 82.9313C745.726 91.3452 745.444 98.1484 745.102 98.1484C744.759 98.1484 744.478 91.3452 744.478 82.9313Z" fill="url(#paint25_radial_1_82)"/>
</g>
<g style="mix-blend-mode:screen">
<path d="M745.101 83.5885C753.086 83.5885 759.558 83.2943 759.558 82.9314C759.558 82.5684 753.086 82.2742 745.101 82.2742C737.116 82.2742 730.644 82.5684 730.644 82.9314C730.644 83.2943 737.116 83.5885 745.101 83.5885Z" fill="url(#paint26_radial_1_82)"/>
</g>
<g style="mix-blend-mode:screen">
<path d="M1220.24 74.3692C1220.24 69.643 1223.89 65.8069 1228.38 65.8069C1232.87 65.8069 1236.51 69.643 1236.51 74.3692C1236.51 79.0954 1232.87 82.9314 1228.38 82.9314C1223.89 82.9314 1220.24 79.0954 1220.24 74.3692Z" fill="url(#paint27_radial_1_82)"/>
</g>
<g style="mix-blend-mode:screen">
<path d="M1228.35 89.5863C1228.7 89.5863 1228.98 82.7734 1228.98 74.3692C1228.98 65.965 1228.7 59.1521 1228.35 59.1521C1228.01 59.1521 1227.73 65.965 1227.73 74.3692C1227.73 82.7734 1228.01 89.5863 1228.35 89.5863Z" fill="url(#paint28_radial_1_82)"/>
</g>
<g style="mix-blend-mode:screen">
<path d="M1228.36 75.0267C1236.34 75.0267 1242.81 74.7324 1242.81 74.3695C1242.81 74.0065 1236.34 73.7123 1228.36 73.7123C1220.37 73.7123 1213.9 74.0065 1213.9 74.3695C1213.9 74.7324 1220.37 75.0267 1228.36 75.0267Z" fill="url(#paint29_radial_1_82)"/>
</g>
<g style="mix-blend-mode:screen">
<path d="M357.63 203.206C357.63 198.48 361.274 194.644 365.765 194.644C370.255 194.644 373.9 198.48 373.9 203.206C373.9 207.932 370.255 211.768 365.765 211.768C361.274 211.768 357.63 207.932 357.63 203.206Z" fill="url(#paint30_radial_1_82)"/>
</g>
<g style="mix-blend-mode:screen">
<path d="M365.141 203.206C365.141 194.813 365.422 187.989 365.765 187.989C366.107 187.989 366.389 194.792 366.389 203.206C366.389 211.62 366.107 218.423 365.765 218.423C365.422 218.423 365.141 211.62 365.141 203.206Z" fill="url(#paint31_radial_1_82)"/>
</g>
<g style="mix-blend-mode:screen">
<path d="M365.765 203.863C373.75 203.863 380.222 203.569 380.222 203.206C380.222 202.843 373.75 202.549 365.765 202.549C357.78 202.549 351.308 202.843 351.308 203.206C351.308 203.569 357.78 203.863 365.765 203.863Z" fill="url(#paint32_radial_1_82)"/>
</g>
<g style="mix-blend-mode:screen">
<path d="M216.315 167.876C216.315 163.149 219.96 159.313 224.45 159.313C228.94 159.313 232.585 163.149 232.585 167.876C232.585 172.602 228.94 176.438 224.45 176.438C219.96 176.438 216.315 172.602 216.315 167.876Z" fill="url(#paint33_radial_1_82)"/>
</g>
<g style="mix-blend-mode:screen">
<path d="M223.826 167.876C223.826 159.483 224.108 152.659 224.45 152.659C224.793 152.659 225.075 159.462 225.075 167.876C225.075 176.29 224.793 183.093 224.45 183.093C224.108 183.093 223.826 176.29 223.826 167.876Z" fill="url(#paint34_radial_1_82)"/>
</g>
<g style="mix-blend-mode:screen">
<path d="M224.43 167.24C232.404 167.24 238.887 167.537 238.887 167.897C238.887 168.258 232.424 168.554 224.43 168.554C216.436 168.554 209.973 168.258 209.973 167.897C209.973 167.537 216.436 167.24 224.43 167.24Z" fill="url(#paint35_radial_1_82)"/>
</g>
<g style="mix-blend-mode:screen">
<path d="M105.673 260.937C105.673 256.211 109.317 252.375 113.808 252.375C118.298 252.375 121.942 256.211 121.942 260.937C121.942 265.663 118.298 269.5 113.808 269.5C109.317 269.5 105.673 265.663 105.673 260.937Z" fill="url(#paint36_radial_1_82)"/>
</g>
<g style="mix-blend-mode:screen">
<path d="M113.183 260.937C113.183 252.545 113.465 245.72 113.807 245.72C114.149 245.72 114.431 252.523 114.431 260.937C114.431 269.351 114.149 276.154 113.807 276.154C113.465 276.154 113.183 269.351 113.183 260.937Z" fill="url(#paint37_radial_1_82)"/>
</g>
<g style="mix-blend-mode:screen">
<path d="M113.786 260.302C121.76 260.302 128.244 260.598 128.244 260.959C128.244 261.319 121.78 261.616 113.786 261.616C105.793 261.616 99.3291 261.319 99.3291 260.959C99.3291 260.598 105.793 260.302 113.786 260.302Z" fill="url(#paint38_radial_1_82)"/>
</g>
<g style="mix-blend-mode:screen">
<path d="M297.06 106.689C297.06 101.963 300.704 98.1271 305.194 98.1271C309.685 98.1271 313.329 101.963 313.329 106.689C313.329 111.416 309.685 115.252 305.194 115.252C300.704 115.252 297.06 111.416 297.06 106.689Z" fill="url(#paint39_radial_1_82)"/>
</g>
<g style="mix-blend-mode:screen">
<path d="M304.57 106.689C304.57 98.2966 304.852 91.4722 305.195 91.4722C305.537 91.4722 305.819 98.2754 305.819 106.689C305.819 115.103 305.537 121.906 305.195 121.906C304.852 121.906 304.57 115.103 304.57 106.689Z" fill="url(#paint40_radial_1_82)"/>
</g>
<g style="mix-blend-mode:screen">
<path d="M305.194 106.053C313.167 106.053 319.651 106.35 319.651 106.711C319.651 107.071 313.188 107.368 305.194 107.368C297.2 107.368 290.736 107.071 290.736 106.711C290.736 106.35 297.2 106.053 305.194 106.053Z" fill="url(#paint41_radial_1_82)"/>
</g>
</g>
<path style="mix-blend-mode:screen" d="M382.488 335.644C478.831 286.667 553.086 238.581 548.341 228.241C543.596 217.901 461.649 249.223 365.306 298.201C268.963 347.178 194.709 395.265 199.453 405.604C204.198 415.944 286.145 384.622 382.488 335.644Z" fill="url(#paint42_radial_1_82)"/>
<path style="mix-blend-mode:screen" opacity="0.3" d="M1179.97 133.224C1183.37 140.621 1130.23 175.018 1061.29 210.073C992.342 245.106 933.707 267.529 930.324 260.132C926.922 252.736 980.06 218.338 1049 183.284C1117.95 148.25 1176.58 125.827 1179.97 133.224Z" fill="url(#paint43_radial_1_82)"/>
<path style="mix-blend-mode:screen" opacity="0.5" d="M520.143 189.239C523.526 196.593 470.63 230.843 402.028 265.727C333.405 300.612 275.052 322.908 271.669 315.554C268.286 308.2 321.183 273.951 389.785 239.066C458.407 204.181 516.761 181.885 520.143 189.239Z" fill="url(#paint44_radial_1_82)"/>
</g>
<defs>
<radialGradient id="paint0_radial_1_82" cx="0" cy="0" r="1" gradientUnits="userSpaceOnUse" gradientTransform="translate(1167.19 512.18) rotate(-29.9939) scale(324.28 56.6835)">
<stop stop-color="#19001B" stop-opacity="0"/>
<stop offset="0.38" stop-color="#19011C" stop-opacity="0"/>
<stop offset="0.51" stop-color="#190822" stop-opacity="0.04"/>
<stop offset="0.61" stop-color="#19142B" stop-opacity="0.08"/>
<stop offset="0.68" stop-color="#1A2539" stop-opacity="0.15"/>
<stop offset="0.75" stop-color="#1B3B4B" stop-opacity="0.24"/>
<stop offset="0.81" stop-color="#1D5662" stop-opacity="0.35"/>
<stop offset="0.86" stop-color="#1E777C" stop-opacity="0.48"/>
<stop offset="0.91" stop-color="#209C9B" stop-opacity="0.64"/>
<stop offset="0.96" stop-color="#22C5BD" stop-opacity="0.8"/>
<stop offset="1" stop-color="#25F6E5"/>
</radialGradient>
<radialGradient id="paint1_radial_1_82" cx="0" cy="0" r="1" gradientUnits="userSpaceOnUse" gradientTransform="translate(1206.35 472.864) scale(137.144 144.351)">
<stop stop-color="#19001B" stop-opacity="0"/>
<stop offset="0.12" stop-color="#19041E" stop-opacity="0.02"/>
<stop offset="0.25" stop-color="#191028" stop-opacity="0.07"/>
<stop offset="0.38" stop-color="#1A2539" stop-opacity="0.15"/>
<stop offset="0.51" stop-color="#1C4151" stop-opacity="0.27"/>
<stop offset="0.64" stop-color="#1E666F" stop-opacity="0.42"/>
<stop offset="0.77" stop-color="#209494" stop-opacity="0.6"/>
<stop offset="0.9" stop-color="#22C9C0" stop-opacity="0.82"/>
<stop offset="1" stop-color="#25F6E5"/>
</radialGradient>
<radialGradient id="paint2_radial_1_82" cx="0" cy="0" r="1" gradientUnits="userSpaceOnUse" gradientTransform="translate(865.186 115.887) scale(118.277 124.492)">
<stop stop-color="#19001B" stop-opacity="0"/>
<stop offset="0.12" stop-color="#1C011D" stop-opacity="0.02"/>
<stop offset="0.25" stop-color="#270423" stop-opacity="0.06"/>
<stop offset="0.37" stop-color="#3A0A2E" stop-opacity="0.15"/>
<stop offset="0.5" stop-color="#54123E" stop-opacity="0.26"/>
<stop offset="0.63" stop-color="#751D52" stop-opacity="0.41"/>
<stop offset="0.76" stop-color="#9E2A6B" stop-opacity="0.58"/>
<stop offset="0.89" stop-color="#CE3987" stop-opacity="0.79"/>
<stop offset="1" stop-color="#FE49A4"/>
</radialGradient>
<radialGradient id="paint3_radial_1_82" cx="0" cy="0" r="1" gradientUnits="userSpaceOnUse" gradientTransform="translate(367.024 361.084) rotate(180) scale(16.2495 17.1034)">
<stop stop-color="white"/>
<stop offset="0.18" stop-color="#C3C3C3" stop-opacity="0.76"/>
<stop offset="0.4" stop-color="#7E7E7E" stop-opacity="0.5"/>
<stop offset="0.6" stop-color="#484848" stop-opacity="0.28"/>
<stop offset="0.78" stop-color="#202020" stop-opacity="0.13"/>
<stop offset="0.92" stop-color="#080808" stop-opacity="0.03"/>
<stop offset="1" stop-opacity="0"/>
</radialGradient>
<radialGradient id="paint4_radial_1_82" cx="0" cy="0" r="1" gradientUnits="userSpaceOnUse" gradientTransform="translate(273.084 360.679) rotate(180) scale(1.30158 30.4817)">
<stop stop-color="white"/>
<stop offset="0.18" stop-color="#C3C3C3" stop-opacity="0.76"/>
<stop offset="0.4" stop-color="#7E7E7E" stop-opacity="0.5"/>
<stop offset="0.6" stop-color="#484848" stop-opacity="0.28"/>
<stop offset="0.78" stop-color="#202020" stop-opacity="0.13"/>
<stop offset="0.92" stop-color="#080808" stop-opacity="0.03"/>
<stop offset="1" stop-opacity="0"/>
</radialGradient>
<radialGradient id="paint5_radial_1_82" cx="0" cy="0" r="1" gradientUnits="userSpaceOnUse" gradientTransform="translate(363.517 296.415) rotate(-90) scale(1.37034 28.9599)">
<stop stop-color="white"/>
<stop offset="0.18" stop-color="#C3C3C3" stop-opacity="0.76"/>
<stop offset="0.4" stop-color="#7E7E7E" stop-opacity="0.5"/>
<stop offset="0.6" stop-color="#484848" stop-opacity="0.28"/>
<stop offset="0.78" stop-color="#202020" stop-opacity="0.13"/>
<stop offset="0.92" stop-color="#080808" stop-opacity="0.03"/>
<stop offset="1" stop-opacity="0"/>
</radialGradient>
<radialGradient id="paint6_radial_1_82" cx="0" cy="0" r="1" gradientUnits="userSpaceOnUse" gradientTransform="translate(592.796 261.595) rotate(180) scale(16.2495 17.1034)">
<stop stop-color="white"/>
<stop offset="0.18" stop-color="#C3C3C3" stop-opacity="0.76"/>
<stop offset="0.4" stop-color="#7E7E7E" stop-opacity="0.5"/>
<stop offset="0.6" stop-color="#484848" stop-opacity="0.28"/>
<stop offset="0.78" stop-color="#202020" stop-opacity="0.13"/>
<stop offset="0.92" stop-color="#080808" stop-opacity="0.03"/>
<stop offset="1" stop-opacity="0"/>
</radialGradient>
<radialGradient id="paint7_radial_1_82" cx="0" cy="0" r="1" gradientUnits="userSpaceOnUse" gradientTransform="translate(510.138 260.708) rotate(180) scale(1.30156 30.4817)">
<stop stop-color="white"/>
<stop offset="0.18" stop-color="#C3C3C3" stop-opacity="0.76"/>
<stop offset="0.4" stop-color="#7E7E7E" stop-opacity="0.5"/>
<stop offset="0.6" stop-color="#484848" stop-opacity="0.28"/>
<stop offset="0.78" stop-color="#202020" stop-opacity="0.13"/>
<stop offset="0.92" stop-color="#080808" stop-opacity="0.03"/>
<stop offset="1" stop-opacity="0"/>
</radialGradient>
<radialGradient id="paint8_radial_1_82" cx="0" cy="0" r="1" gradientUnits="userSpaceOnUse" gradientTransform="translate(589.644 191.61) rotate(-90) scale(1.37033 28.9599)">
<stop stop-color="white"/>
<stop offset="0.18" stop-color="#C3C3C3" stop-opacity="0.76"/>
<stop offset="0.4" stop-color="#7E7E7E" stop-opacity="0.5"/>
<stop offset="0.6" stop-color="#484848" stop-opacity="0.28"/>
<stop offset="0.78" stop-color="#202020" stop-opacity="0.13"/>
<stop offset="0.92" stop-color="#080808" stop-opacity="0.03"/>
<stop offset="1" stop-opacity="0"/>
</radialGradient>
<radialGradient id="paint9_radial_1_82" cx="0" cy="0" r="1" gradientUnits="userSpaceOnUse" gradientTransform="translate(1344.03 168.533) rotate(180) scale(36.3248 38.2335)">
<stop stop-color="white"/>
<stop offset="0.18" stop-color="#C3C3C3" stop-opacity="0.76"/>
<stop offset="0.4" stop-color="#7E7E7E" stop-opacity="0.5"/>
<stop offset="0.6" stop-color="#484848" stop-opacity="0.28"/>
<stop offset="0.78" stop-color="#202020" stop-opacity="0.13"/>
<stop offset="0.92" stop-color="#080808" stop-opacity="0.03"/>
<stop offset="1" stop-opacity="0"/>
</radialGradient>
<radialGradient id="paint10_radial_1_82" cx="0" cy="0" r="1" gradientUnits="userSpaceOnUse" gradientTransform="translate(1298.83 167.528) rotate(180) scale(2.9076 68.0934)">
<stop stop-color="white"/>
<stop offset="0.18" stop-color="#C3C3C3" stop-opacity="0.76"/>
<stop offset="0.4" stop-color="#7E7E7E" stop-opacity="0.5"/>
<stop offset="0.6" stop-color="#484848" stop-opacity="0.28"/>
<stop offset="0.78" stop-color="#202020" stop-opacity="0.13"/>
<stop offset="0.92" stop-color="#080808" stop-opacity="0.03"/>
<stop offset="1" stop-opacity="0"/>
</radialGradient>
<radialGradient id="paint11_radial_1_82" cx="0" cy="0" r="1" gradientUnits="userSpaceOnUse" gradientTransform="translate(1341.96 93.9276) rotate(-90) scale(3.06038 64.6939)">
<stop stop-color="white"/>
<stop offset="0.18" stop-color="#C3C3C3" stop-opacity="0.76"/>
<stop offset="0.4" stop-color="#7E7E7E" stop-opacity="0.5"/>
<stop offset="0.6" stop-color="#484848" stop-opacity="0.28"/>
<stop offset="0.78" stop-color="#202020" stop-opacity="0.13"/>
<stop offset="0.92" stop-color="#080808" stop-opacity="0.03"/>
<stop offset="1" stop-opacity="0"/>
</radialGradient>
<radialGradient id="paint12_radial_1_82" cx="0" cy="0" r="1" gradientUnits="userSpaceOnUse" gradientTransform="translate(119.525 487.246) rotate(180) scale(67.2531 70.7871)">
<stop stop-color="white"/>
<stop offset="0.18" stop-color="#C3C3C3" stop-opacity="0.76"/>
<stop offset="0.4" stop-color="#7E7E7E" stop-opacity="0.5"/>
<stop offset="0.6" stop-color="#484848" stop-opacity="0.28"/>
<stop offset="0.78" stop-color="#202020" stop-opacity="0.13"/>
<stop offset="0.92" stop-color="#080808" stop-opacity="0.03"/>
<stop offset="1" stop-opacity="0"/>
</radialGradient>
<radialGradient id="paint13_radial_1_82" cx="0" cy="0" r="1" gradientUnits="userSpaceOnUse" gradientTransform="translate(13.285 486.717) rotate(180) scale(5.38025 126.001)">
<stop stop-color="white"/>
<stop offset="0.18" stop-color="#C3C3C3" stop-opacity="0.76"/>
<stop offset="0.4" stop-color="#7E7E7E" stop-opacity="0.5"/>
<stop offset="0.6" stop-color="#484848" stop-opacity="0.28"/>
<stop offset="0.78" stop-color="#202020" stop-opacity="0.13"/>
<stop offset="0.92" stop-color="#080808" stop-opacity="0.03"/>
<stop offset="1" stop-opacity="0"/>
</radialGradient>
<radialGradient id="paint14_radial_1_82" cx="0" cy="0" r="1" gradientUnits="userSpaceOnUse" gradientTransform="translate(115.677 428.529) rotate(-90) scale(5.66296 119.711)">
<stop stop-color="white"/>
<stop offset="0.18" stop-color="#C3C3C3" stop-opacity="0.76"/>
<stop offset="0.4" stop-color="#7E7E7E" stop-opacity="0.5"/>
<stop offset="0.6" stop-color="#484848" stop-opacity="0.28"/>
<stop offset="0.78" stop-color="#202020" stop-opacity="0.13"/>
<stop offset="0.92" stop-color="#080808" stop-opacity="0.03"/>
<stop offset="1" stop-opacity="0"/>
</radialGradient>
<radialGradient id="paint15_radial_1_82" cx="0" cy="0" r="1" gradientUnits="userSpaceOnUse" gradientTransform="translate(1070.89 307.225) rotate(180) scale(8.13483 8.56228)">
<stop stop-color="white"/>
<stop offset="0.18" stop-color="#C3C3C3" stop-opacity="0.76"/>
<stop offset="0.4" stop-color="#7E7E7E" stop-opacity="0.5"/>
<stop offset="0.6" stop-color="#484848" stop-opacity="0.28"/>
<stop offset="0.78" stop-color="#202020" stop-opacity="0.13"/>
<stop offset="0.92" stop-color="#080808" stop-opacity="0.03"/>
<stop offset="1" stop-opacity="0"/>
</radialGradient>
<radialGradient id="paint16_radial_1_82" cx="0" cy="0" r="1" gradientUnits="userSpaceOnUse" gradientTransform="translate(1012.08 306.43) rotate(180) scale(0.65078 15.2409)">
<stop stop-color="white"/>
<stop offset="0.18" stop-color="#C3C3C3" stop-opacity="0.76"/>
<stop offset="0.4" stop-color="#7E7E7E" stop-opacity="0.5"/>
<stop offset="0.6" stop-color="#484848" stop-opacity="0.28"/>
<stop offset="0.78" stop-color="#202020" stop-opacity="0.13"/>
<stop offset="0.92" stop-color="#080808" stop-opacity="0.03"/>
<stop offset="1" stop-opacity="0"/>
</radialGradient>
<radialGradient id="paint17_radial_1_82" cx="0" cy="0" r="1" gradientUnits="userSpaceOnUse" gradientTransform="translate(1068.41 239.511) rotate(-90) scale(0.685179 14.48)">
<stop stop-color="white"/>
<stop offset="0.18" stop-color="#C3C3C3" stop-opacity="0.76"/>
<stop offset="0.4" stop-color="#7E7E7E" stop-opacity="0.5"/>
<stop offset="0.6" stop-color="#484848" stop-opacity="0.28"/>
<stop offset="0.78" stop-color="#202020" stop-opacity="0.13"/>
<stop offset="0.92" stop-color="#080808" stop-opacity="0.03"/>
<stop offset="1" stop-opacity="0"/>
</radialGradient>
<radialGradient id="paint18_radial_1_82" cx="0" cy="0" r="1" gradientUnits="userSpaceOnUse" gradientTransform="translate(902.055 128.562) rotate(180) scale(8.13479 8.56228)">
<stop stop-color="white"/>
<stop offset="0.18" stop-color="#C3C3C3" stop-opacity="0.76"/>
<stop offset="0.4" stop-color="#7E7E7E" stop-opacity="0.5"/>
<stop offset="0.6" stop-color="#484848" stop-opacity="0.28"/>
<stop offset="0.78" stop-color="#202020" stop-opacity="0.13"/>
<stop offset="0.92" stop-color="#080808" stop-opacity="0.03"/>
<stop offset="1" stop-opacity="0"/>
</radialGradient>
<radialGradient id="paint19_radial_1_82" cx="0" cy="0" r="1" gradientUnits="userSpaceOnUse" gradientTransform="translate(834.808 127.502) rotate(180) scale(0.65078 15.2409)">
<stop stop-color="white"/>
<stop offset="0.18" stop-color="#C3C3C3" stop-opacity="0.76"/>
<stop offset="0.4" stop-color="#7E7E7E" stop-opacity="0.5"/>
<stop offset="0.6" stop-color="#484848" stop-opacity="0.28"/>
<stop offset="0.78" stop-color="#202020" stop-opacity="0.13"/>
<stop offset="0.92" stop-color="#080808" stop-opacity="0.03"/>
<stop offset="1" stop-opacity="0"/>
</radialGradient>
<radialGradient id="paint20_radial_1_82" cx="0" cy="0" r="1" gradientUnits="userSpaceOnUse" gradientTransform="translate(899.312 51.9364) rotate(-90) scale(0.685171 14.48)">
<stop stop-color="white"/>
<stop offset="0.18" stop-color="#C3C3C3" stop-opacity="0.76"/>
<stop offset="0.4" stop-color="#7E7E7E" stop-opacity="0.5"/>
<stop offset="0.6" stop-color="#484848" stop-opacity="0.28"/>
<stop offset="0.78" stop-color="#202020" stop-opacity="0.13"/>
<stop offset="0.92" stop-color="#080808" stop-opacity="0.03"/>
<stop offset="1" stop-opacity="0"/>
</radialGradient>
<radialGradient id="paint21_radial_1_82" cx="0" cy="0" r="1" gradientUnits="userSpaceOnUse" gradientTransform="translate(734.931 411.541) rotate(180) scale(8.13479 8.56228)">
<stop stop-color="white"/>
<stop offset="0.18" stop-color="#C3C3C3" stop-opacity="0.76"/>
<stop offset="0.4" stop-color="#7E7E7E" stop-opacity="0.5"/>
<stop offset="0.6" stop-color="#484848" stop-opacity="0.28"/>
<stop offset="0.78" stop-color="#202020" stop-opacity="0.13"/>
<stop offset="0.92" stop-color="#080808" stop-opacity="0.03"/>
<stop offset="1" stop-opacity="0"/>
</radialGradient>
<radialGradient id="paint22_radial_1_82" cx="0" cy="0" r="1" gradientUnits="userSpaceOnUse" gradientTransform="translate(659.364 410.891) rotate(180) scale(0.65078 15.2409)">
<stop stop-color="white"/>
<stop offset="0.18" stop-color="#C3C3C3" stop-opacity="0.76"/>
<stop offset="0.4" stop-color="#7E7E7E" stop-opacity="0.5"/>
<stop offset="0.6" stop-color="#484848" stop-opacity="0.28"/>
<stop offset="0.78" stop-color="#202020" stop-opacity="0.13"/>
<stop offset="0.92" stop-color="#080808" stop-opacity="0.03"/>
<stop offset="1" stop-opacity="0"/>
</radialGradient>
<radialGradient id="paint23_radial_1_82" cx="0" cy="0" r="1" gradientUnits="userSpaceOnUse" gradientTransform="translate(731.971 349.037) rotate(-90) scale(0.685179 14.48)">
<stop stop-color="white"/>
<stop offset="0.18" stop-color="#C3C3C3" stop-opacity="0.76"/>
<stop offset="0.4" stop-color="#7E7E7E" stop-opacity="0.5"/>
<stop offset="0.6" stop-color="#484848" stop-opacity="0.28"/>
<stop offset="0.78" stop-color="#202020" stop-opacity="0.13"/>
<stop offset="0.92" stop-color="#080808" stop-opacity="0.03"/>
<stop offset="1" stop-opacity="0"/>
</radialGradient>
<radialGradient id="paint24_radial_1_82" cx="0" cy="0" r="1" gradientUnits="userSpaceOnUse" gradientTransform="translate(745.1 82.9313) rotate(180) scale(8.13479 8.56228)">
<stop stop-color="white"/>
<stop offset="0.18" stop-color="#C3C3C3" stop-opacity="0.76"/>
<stop offset="0.4" stop-color="#7E7E7E" stop-opacity="0.5"/>
<stop offset="0.6" stop-color="#484848" stop-opacity="0.28"/>
<stop offset="0.78" stop-color="#202020" stop-opacity="0.13"/>
<stop offset="0.92" stop-color="#080808" stop-opacity="0.03"/>
<stop offset="1" stop-opacity="0"/>
</radialGradient>
<radialGradient id="paint25_radial_1_82" cx="0" cy="0" r="1" gradientUnits="userSpaceOnUse" gradientTransform="translate(670.037 81.8165) rotate(180) scale(0.65078 15.2409)">
<stop stop-color="white"/>
<stop offset="0.18" stop-color="#C3C3C3" stop-opacity="0.76"/>
<stop offset="0.4" stop-color="#7E7E7E" stop-opacity="0.5"/>
<stop offset="0.6" stop-color="#484848" stop-opacity="0.28"/>
<stop offset="0.78" stop-color="#202020" stop-opacity="0.13"/>
<stop offset="0.92" stop-color="#080808" stop-opacity="0.03"/>
<stop offset="1" stop-opacity="0"/>
</radialGradient>
<radialGradient id="paint26_radial_1_82" cx="0" cy="0" r="1" gradientUnits="userSpaceOnUse" gradientTransform="translate(742.151 4.03457) rotate(-90) scale(0.685167 14.48)">
<stop stop-color="white"/>
<stop offset="0.18" stop-color="#C3C3C3" stop-opacity="0.76"/>
<stop offset="0.4" stop-color="#7E7E7E" stop-opacity="0.5"/>
<stop offset="0.6" stop-color="#484848" stop-opacity="0.28"/>
<stop offset="0.78" stop-color="#202020" stop-opacity="0.13"/>
<stop offset="0.92" stop-color="#080808" stop-opacity="0.03"/>
<stop offset="1" stop-opacity="0"/>
</radialGradient>
<radialGradient id="paint27_radial_1_82" cx="0" cy="0" r="1" gradientUnits="userSpaceOnUse" gradientTransform="translate(1228.38 74.3904) rotate(180) scale(8.13483 8.56228)">
<stop stop-color="white"/>
<stop offset="0.18" stop-color="#C3C3C3" stop-opacity="0.76"/>
<stop offset="0.4" stop-color="#7E7E7E" stop-opacity="0.5"/>
<stop offset="0.6" stop-color="#484848" stop-opacity="0.28"/>
<stop offset="0.78" stop-color="#202020" stop-opacity="0.13"/>
<stop offset="0.92" stop-color="#080808" stop-opacity="0.03"/>
<stop offset="1" stop-opacity="0"/>
</radialGradient>
<radialGradient id="paint28_radial_1_82" cx="0" cy="0" r="1" gradientUnits="userSpaceOnUse" gradientTransform="translate(1177.4 73.2154) rotate(180) scale(0.65078 15.2409)">
<stop stop-color="white"/>
<stop offset="0.18" stop-color="#C3C3C3" stop-opacity="0.76"/>
<stop offset="0.4" stop-color="#7E7E7E" stop-opacity="0.5"/>
<stop offset="0.6" stop-color="#484848" stop-opacity="0.28"/>
<stop offset="0.78" stop-color="#202020" stop-opacity="0.13"/>
<stop offset="0.92" stop-color="#080808" stop-opacity="0.03"/>
<stop offset="1" stop-opacity="0"/>
</radialGradient>
<radialGradient id="paint29_radial_1_82" cx="0" cy="0" r="1" gradientUnits="userSpaceOnUse" gradientTransform="translate(1226.12 -4.9484) rotate(-90) scale(0.685171 14.4799)">
<stop stop-color="white"/>
<stop offset="0.18" stop-color="#C3C3C3" stop-opacity="0.76"/>
<stop offset="0.4" stop-color="#7E7E7E" stop-opacity="0.5"/>
<stop offset="0.6" stop-color="#484848" stop-opacity="0.28"/>
<stop offset="0.78" stop-color="#202020" stop-opacity="0.13"/>
<stop offset="0.92" stop-color="#080808" stop-opacity="0.03"/>
<stop offset="1" stop-opacity="0"/>
</radialGradient>
<radialGradient id="paint30_radial_1_82" cx="0" cy="0" r="1" gradientUnits="userSpaceOnUse" gradientTransform="translate(365.765 203.206) rotate(180) scale(8.13481 8.56228)">
<stop stop-color="white"/>
<stop offset="0.18" stop-color="#C3C3C3" stop-opacity="0.76"/>
<stop offset="0.4" stop-color="#7E7E7E" stop-opacity="0.5"/>
<stop offset="0.6" stop-color="#484848" stop-opacity="0.28"/>
<stop offset="0.78" stop-color="#202020" stop-opacity="0.13"/>
<stop offset="0.92" stop-color="#080808" stop-opacity="0.03"/>
<stop offset="1" stop-opacity="0"/>
</radialGradient>
<radialGradient id="paint31_radial_1_82" cx="0" cy="0" r="1" gradientUnits="userSpaceOnUse" gradientTransform="translate(271.785 202.234) rotate(180) scale(0.650796 15.2409)">
<stop stop-color="white"/>
<stop offset="0.18" stop-color="#C3C3C3" stop-opacity="0.76"/>
<stop offset="0.4" stop-color="#7E7E7E" stop-opacity="0.5"/>
<stop offset="0.6" stop-color="#484848" stop-opacity="0.28"/>
<stop offset="0.78" stop-color="#202020" stop-opacity="0.13"/>
<stop offset="0.92" stop-color="#080808" stop-opacity="0.03"/>
<stop offset="1" stop-opacity="0"/>
</radialGradient>
<radialGradient id="paint32_radial_1_82" cx="0" cy="0" r="1" gradientUnits="userSpaceOnUse" gradientTransform="translate(362.267 130.312) rotate(-90) scale(0.685171 14.48)">
<stop stop-color="white"/>
<stop offset="0.18" stop-color="#C3C3C3" stop-opacity="0.76"/>
<stop offset="0.4" stop-color="#7E7E7E" stop-opacity="0.5"/>
<stop offset="0.6" stop-color="#484848" stop-opacity="0.28"/>
<stop offset="0.78" stop-color="#202020" stop-opacity="0.13"/>
<stop offset="0.92" stop-color="#080808" stop-opacity="0.03"/>
<stop offset="1" stop-opacity="0"/>
</radialGradient>
<radialGradient id="paint33_radial_1_82" cx="0" cy="0" r="1" gradientUnits="userSpaceOnUse" gradientTransform="translate(224.45 167.897) rotate(180) scale(8.13481 8.56228)">
<stop stop-color="white"/>
<stop offset="0.18" stop-color="#C3C3C3" stop-opacity="0.76"/>
<stop offset="0.4" stop-color="#7E7E7E" stop-opacity="0.5"/>
<stop offset="0.6" stop-color="#484848" stop-opacity="0.28"/>
<stop offset="0.78" stop-color="#202020" stop-opacity="0.13"/>
<stop offset="0.92" stop-color="#080808" stop-opacity="0.03"/>
<stop offset="1" stop-opacity="0"/>
</radialGradient>
<radialGradient id="paint34_radial_1_82" cx="0" cy="0" r="1" gradientUnits="userSpaceOnUse" gradientTransform="translate(123.416 166.886) rotate(180) scale(0.65078 15.2409)">
<stop stop-color="white"/>
<stop offset="0.18" stop-color="#C3C3C3" stop-opacity="0.76"/>
<stop offset="0.4" stop-color="#7E7E7E" stop-opacity="0.5"/>
<stop offset="0.6" stop-color="#484848" stop-opacity="0.28"/>
<stop offset="0.78" stop-color="#202020" stop-opacity="0.13"/>
<stop offset="0.92" stop-color="#080808" stop-opacity="0.03"/>
<stop offset="1" stop-opacity="0"/>
</radialGradient>
<radialGradient id="paint35_radial_1_82" cx="0" cy="0" r="1" gradientUnits="userSpaceOnUse" gradientTransform="translate(220.726 93.2231) rotate(-90) scale(0.685162 14.48)">
<stop stop-color="white"/>
<stop offset="0.18" stop-color="#C3C3C3" stop-opacity="0.76"/>
<stop offset="0.4" stop-color="#7E7E7E" stop-opacity="0.5"/>
<stop offset="0.6" stop-color="#484848" stop-opacity="0.28"/>
<stop offset="0.78" stop-color="#202020" stop-opacity="0.13"/>
<stop offset="0.92" stop-color="#080808" stop-opacity="0.03"/>
<stop offset="1" stop-opacity="0"/>
</radialGradient>
<radialGradient id="paint36_radial_1_82" cx="0" cy="0" r="1" gradientUnits="userSpaceOnUse" gradientTransform="translate(113.808 260.958) rotate(180) scale(8.13481 8.56228)">
<stop stop-color="white"/>
<stop offset="0.18" stop-color="#C3C3C3" stop-opacity="0.76"/>
<stop offset="0.4" stop-color="#7E7E7E" stop-opacity="0.5"/>
<stop offset="0.6" stop-color="#484848" stop-opacity="0.28"/>
<stop offset="0.78" stop-color="#202020" stop-opacity="0.13"/>
<stop offset="0.92" stop-color="#080808" stop-opacity="0.03"/>
<stop offset="1" stop-opacity="0"/>
</radialGradient>
<radialGradient id="paint37_radial_1_82" cx="0" cy="0" r="1" gradientUnits="userSpaceOnUse" gradientTransform="translate(7.25165 260.066) rotate(180) scale(0.650788 15.2409)">
<stop stop-color="white"/>
<stop offset="0.18" stop-color="#C3C3C3" stop-opacity="0.76"/>
<stop offset="0.4" stop-color="#7E7E7E" stop-opacity="0.5"/>
<stop offset="0.6" stop-color="#484848" stop-opacity="0.28"/>
<stop offset="0.78" stop-color="#202020" stop-opacity="0.13"/>
<stop offset="0.92" stop-color="#080808" stop-opacity="0.03"/>
<stop offset="1" stop-opacity="0"/>
</radialGradient>
<radialGradient id="paint38_radial_1_82" cx="0" cy="0" r="1" gradientUnits="userSpaceOnUse" gradientTransform="translate(109.942 190.925) rotate(-90) scale(0.685171 14.48)">
<stop stop-color="white"/>
<stop offset="0.18" stop-color="#C3C3C3" stop-opacity="0.76"/>
<stop offset="0.4" stop-color="#7E7E7E" stop-opacity="0.5"/>
<stop offset="0.6" stop-color="#484848" stop-opacity="0.28"/>
<stop offset="0.78" stop-color="#202020" stop-opacity="0.13"/>
<stop offset="0.92" stop-color="#080808" stop-opacity="0.03"/>
<stop offset="1" stop-opacity="0"/>
</radialGradient>
<radialGradient id="paint39_radial_1_82" cx="0" cy="0" r="1" gradientUnits="userSpaceOnUse" gradientTransform="translate(305.194 106.711) rotate(180) scale(8.13481 8.56228)">
<stop stop-color="white"/>
<stop offset="0.18" stop-color="#C3C3C3" stop-opacity="0.76"/>
<stop offset="0.4" stop-color="#7E7E7E" stop-opacity="0.5"/>
<stop offset="0.6" stop-color="#484848" stop-opacity="0.28"/>
<stop offset="0.78" stop-color="#202020" stop-opacity="0.13"/>
<stop offset="0.92" stop-color="#080808" stop-opacity="0.03"/>
<stop offset="1" stop-opacity="0"/>
</radialGradient>
<radialGradient id="paint40_radial_1_82" cx="0" cy="0" r="1" gradientUnits="userSpaceOnUse" gradientTransform="translate(208.19 105.583) rotate(180) scale(0.650796 15.2409)">
<stop stop-color="white"/>
<stop offset="0.18" stop-color="#C3C3C3" stop-opacity="0.76"/>
<stop offset="0.4" stop-color="#7E7E7E" stop-opacity="0.5"/>
<stop offset="0.6" stop-color="#484848" stop-opacity="0.28"/>
<stop offset="0.78" stop-color="#202020" stop-opacity="0.13"/>
<stop offset="0.92" stop-color="#080808" stop-opacity="0.03"/>
<stop offset="1" stop-opacity="0"/>
</radialGradient>
<radialGradient id="paint41_radial_1_82" cx="0" cy="0" r="1" gradientUnits="userSpaceOnUse" gradientTransform="translate(301.62 28.9858) rotate(-90) scale(0.685167 14.48)">
<stop stop-color="white"/>
<stop offset="0.18" stop-color="#C3C3C3" stop-opacity="0.76"/>
<stop offset="0.4" stop-color="#7E7E7E" stop-opacity="0.5"/>
<stop offset="0.6" stop-color="#484848" stop-opacity="0.28"/>
<stop offset="0.78" stop-color="#202020" stop-opacity="0.13"/>
<stop offset="0.92" stop-color="#080808" stop-opacity="0.03"/>
<stop offset="1" stop-opacity="0"/>
</radialGradient>
<radialGradient id="paint42_radial_1_82" cx="0" cy="0" r="1" gradientUnits="userSpaceOnUse" gradientTransform="translate(254.599 376.354) rotate(-26.9474) scale(250.153 16.8283)">
<stop stop-color="#25F6E5"/>
<stop offset="0.08" stop-color="#23DACE" stop-opacity="0.89"/>
<stop offset="0.27" stop-color="#209898" stop-opacity="0.62"/>
<stop offset="0.45" stop-color="#1D626B" stop-opacity="0.4"/>
<stop offset="0.63" stop-color="#1B3748" stop-opacity="0.23"/>
<stop offset="0.78" stop-color="#1A192F" stop-opacity="0.1"/>
<stop offset="0.91" stop-color="#190620" stop-opacity="0.03"/>
<stop offset="1" stop-color="#19001B" stop-opacity="0"/>
</radialGradient>
<radialGradient id="paint43_radial_1_82" cx="0" cy="0" r="1" gradientUnits="userSpaceOnUse" gradientTransform="translate(970.478 239.133) rotate(-26.9473) scale(178.969 12.0396)">
<stop stop-color="#FE47D0"/>
<stop offset="0.1" stop-color="#DD3DB6" stop-opacity="0.86"/>
<stop offset="0.29" stop-color="#A22A87" stop-opacity="0.6"/>
<stop offset="0.47" stop-color="#711B61" stop-opacity="0.39"/>
<stop offset="0.63" stop-color="#4B0F42" stop-opacity="0.22"/>
<stop offset="0.78" stop-color="#2F072C" stop-opacity="0.1"/>
<stop offset="0.91" stop-color="#1E011F" stop-opacity="0.03"/>
<stop offset="1" stop-color="#19001B" stop-opacity="0"/>
</radialGradient>
<radialGradient id="paint44_radial_1_82" cx="0" cy="0" r="1" gradientUnits="userSpaceOnUse" gradientTransform="translate(310.778 293.604) rotate(-26.9473) scale(178.127 11.983)">
<stop stop-color="#FE49A4"/>
<stop offset="0.1" stop-color="#DD3E90" stop-opacity="0.86"/>
<stop offset="0.29" stop-color="#A22B6D" stop-opacity="0.6"/>
<stop offset="0.47" stop-color="#711C50" stop-opacity="0.39"/>
<stop offset="0.63" stop-color="#4B1039" stop-opacity="0.22"/>
<stop offset="0.78" stop-color="#2F0728" stop-opacity="0.1"/>
<stop offset="0.91" stop-color="#1E011E" stop-opacity="0.03"/>
<stop offset="1" stop-color="#19001B" stop-opacity="0"/>
</radialGradient>
</defs>
</svg>
