<svg width="56" height="56" viewBox="0 0 56 56" fill="none" xmlns="http://www.w3.org/2000/svg">
<rect width="56" height="56" rx="28" fill="url(#paint0_linear_444_9)"/>
<path fill-rule="evenodd" clip-rule="evenodd" d="M28.7255 34.3155L25.7148 37.1494C25.3463 37.4975 24.7465 37.2116 24.7805 36.702C24.8746 35.2619 25.0209 33.0739 25.1189 31.8575C25.1346 31.6656 25.294 31.4512 25.4456 31.3122C28.962 28.0826 32.4862 24.8609 36.009 21.6366C36.1397 21.5174 36.2939 21.2236 36.2129 21.0687C36.1214 20.894 35.6993 20.947 35.5242 21.0581C31.0501 23.9119 26.5759 26.7642 22.1083 29.6272C21.8339 29.8019 21.4981 29.8443 21.1897 29.7437C19.3472 29.1441 17.4943 28.5763 15.648 27.9859C15.2233 27.8496 14.7189 27.7146 14.6705 27.1812C14.6196 26.6239 15.0913 26.3592 15.5173 26.1858C17.2343 25.4843 18.9631 24.8132 20.6892 24.1382C26.8987 21.7147 33.1081 19.2924 39.3176 16.8702C39.5254 16.7895 39.8024 16.7392 40.0193 16.6955C40.67 16.5631 41.2554 16.894 41.3195 17.5611C41.3678 18.0496 41.2829 18.5936 41.1823 19.0767C39.8886 25.3096 38.578 31.5399 37.2687 37.7715C36.9159 39.4551 36.0613 39.7741 34.6853 38.7456C32.9121 37.4194 28.7255 34.3155 28.7255 34.3155Z" fill="white"/>
<defs>
<linearGradient id="paint0_linear_444_9" x1="0" y1="0" x2="41.2206" y2="65.3258" gradientUnits="userSpaceOnUse">
<stop stop-color="white" stop-opacity="0.1"/>
<stop offset="1" stop-color="white" stop-opacity="0.05"/>
</linearGradient>
</defs>
</svg>
