<svg width="80" height="80" viewBox="0 0 80 80" fill="none" xmlns="http://www.w3.org/2000/svg">
<path fill-rule="evenodd" clip-rule="evenodd" d="M30.3127 44.8751C16.1042 44.8751 9 49.1001 9 57.5501C9 62.4251 12.5521 66.0001 17.073 66.0001H43.5525C48.0733 66.0001 51.3025 62.7501 51.6255 57.5501C51.6255 49.1001 44.5212 44.8751 30.3127 44.8751Z" fill="white"/>
<path fill-rule="evenodd" clip-rule="evenodd" d="M30.3121 38.05C37.0935 38.05 42.2602 32.85 42.2602 26.025C42.2602 19.2 37.0935 14 30.3121 14C23.5307 14 18.364 19.2 18.364 26.025C18.0411 28.95 19.3328 31.875 21.5932 34.15C23.8537 36.75 27.0829 38.05 30.3121 38.05Z" fill="white"/>
<g opacity="0.3">
<path fill-rule="evenodd" clip-rule="evenodd" d="M56.4682 45.5225C55.4994 45.5225 54.5307 45.8475 54.2077 46.8225C53.8848 47.4725 53.8848 48.7725 54.2077 49.4225C57.4369 54.2975 57.114 58.8475 55.8223 61.4475C55.4994 62.0975 55.4994 63.0725 56.1453 63.7225C56.4682 64.3725 57.4369 64.6975 58.0828 64.6975H63.2495C67.7704 64.6975 70.9996 61.4475 70.9996 56.5725C70.9996 46.4975 60.0203 45.5225 56.4682 45.5225Z" fill="white"/>
<path fill-rule="evenodd" clip-rule="evenodd" d="M56.145 38.3724C61.3117 38.3724 65.1867 34.4724 65.1867 28.9475C65.1867 23.4225 61.3117 19.5225 56.145 19.5225C50.9782 19.5225 46.7803 23.4225 46.7803 28.9475C46.7803 34.4724 50.9782 38.3724 56.145 38.3724Z" fill="white"/>
</g>
</svg>
